<?xml version="1.0" standalone="no"?>
<!DOCTYPE svg PUBLIC "-//W3C//DTD SVG 1.1//EN" "http://www.w3.org/Graphics/SVG/1.1/DTD/svg11.dtd" >
<svg xmlns="http://www.w3.org/2000/svg">
<metadata></metadata>
<defs>
<font id="merriweatherregular" horiz-adv-x="1218" >
<font-face units-per-em="2048" ascent="1638" descent="-410" />
<missing-glyph horiz-adv-x="616" />
<glyph horiz-adv-x="0" />
<glyph unicode="&#xd;" horiz-adv-x="0" />
<glyph horiz-adv-x="0" />
<glyph horiz-adv-x="0" />
<glyph unicode=" "  horiz-adv-x="616" />
<glyph unicode="&#x09;" horiz-adv-x="616" />
<glyph unicode="&#xa0;" horiz-adv-x="616" />
<glyph unicode="!" horiz-adv-x="727" d="M209 116q0 44 23.5 80.5t62 57t80.5 20.5q70 0 106 -38.5t36 -97.5q0 -48 -22.5 -83.5t-60.5 -55t-84 -19.5q-37 0 -69.5 16.5t-52 47.5t-19.5 72zM220 1784h263l-60 -1275h-139z" />
<glyph unicode="&#x22;" horiz-adv-x="1244" d="M240 1692h235l-48 -754h-141zM770 1692h235l-48 -754h-141z" />
<glyph unicode="#" horiz-adv-x="1523" d="M166 361v133h233l37 402h-236v133h251l31 344h177l-31 -344h327l33 344h176l-31 -344h237v-133h-252l-36 -402h244v-133h-258l-33 -361h-177l32 361h-329l-34 -361h-180l36 361h-217zM575 494h325l41 402h-328z" />
<glyph unicode="$" horiz-adv-x="1370" d="M203 68l16 348h137l48 -244q86 -79 265 -79q142 0 215 62.5t73 185.5q0 74 -47.5 133t-120 104.5t-203.5 114.5q-129 67 -207.5 128.5t-121 143.5t-42.5 197q0 98 52 176.5t143 129t205 66.5v228h158v-224q172 -11 326 -76l-12 -327h-132l-53 233q-63 58 -191 58 q-119 0 -197.5 -54t-78.5 -162q0 -73 39.5 -128.5t97.5 -95.5t157 -95l26 -15q166 -95 248.5 -153.5t133 -138t50.5 -192.5q0 -111 -50.5 -199.5t-149.5 -143.5t-241 -68l-2 -239h-156l2 238q-116 9 -225 36.5t-162 51.5z" />
<glyph unicode="%" horiz-adv-x="2110" d="M108 1074q0 134 54.5 232.5t146 150t200.5 51.5q123 0 205.5 -55t121.5 -150t39 -217q0 -133 -55.5 -230.5t-147 -148.5t-198.5 -51q-111 0 -194 56.5t-127.5 152t-44.5 209.5zM313 1085q0 -85 19.5 -156t59 -113.5t96.5 -42.5q90 0 137 82t47 222q-1 139 -45.5 226.5 t-130.5 87.5q-90 0 -136.5 -83t-46.5 -223zM642 0l656 1538h168l-656 -1538h-168zM1233 459q0 134 54.5 232.5t146.5 150t200 51.5q123 0 205.5 -55.5t122 -150.5t39.5 -216q0 -133 -55.5 -230.5t-147.5 -148.5t-199 -51q-111 0 -194 56.5t-127.5 152t-44.5 209.5zM1438 470 q0 -85 19.5 -156t59 -113.5t96.5 -42.5q90 0 137 82t47 222q0 139 -44.5 226.5t-131.5 87.5q-90 0 -136.5 -83t-46.5 -223z" />
<glyph unicode="&#x26;" horiz-adv-x="1551" d="M121 372q0 127 82 217.5t217 166.5q-76 99 -125 210t-49 216q0 97 53.5 179t147 130.5t208.5 48.5q119 0 201.5 -41.5t123 -106.5t40.5 -136q0 -114 -43.5 -195t-109 -136.5t-186.5 -137.5q79 -98 190.5 -224.5t182.5 -195.5l45 -44q47 66 69 147.5t22 164.5q0 31 -3 59 l-161 25v123h489v-123l-161 -25q1 -138 -44.5 -259.5t-118.5 -201.5q63 -58 121.5 -89.5t132.5 -37.5v-96q-19 -11 -68 -18t-83 -7q-73 1 -130.5 25.5t-130.5 84.5q-77 -60 -176 -87t-190 -27q-166 0 -289 45t-190 133t-67 213zM339 399q0 -80 38.5 -147t116 -107t188.5 -40 q65 0 133.5 18t121.5 55q-156 146 -447 494q-71 -61 -111 -126t-40 -147zM464 1210q0 -102 43 -184t108 -159q78 64 122.5 118.5t65 116.5t20.5 145q0 74 -36.5 133.5t-135.5 59.5q-52 0 -95 -30t-67.5 -82.5t-24.5 -117.5z" />
<glyph unicode="'" horiz-adv-x="714" d="M240 1692h235l-48 -754h-141z" />
<glyph unicode="(" horiz-adv-x="880" d="M135 685q0 271 95.5 487t214.5 348.5t197 176.5l94 -64q-60 -38 -147.5 -153.5t-159.5 -309.5t-78 -446l-1 -43q0 -267 71.5 -477t163 -337t158.5 -175l-101 -69q-82 49 -197 172.5t-212.5 350.5t-97.5 539z" />
<glyph unicode=")" horiz-adv-x="880" d="M136 1628l101 69q82 -49 197 -172.5t212.5 -350.5t97.5 -539q0 -271 -95.5 -487t-214.5 -348.5t-197 -176.5l-94 64q60 38 147.5 153.5t159.5 309.5t78 446l1 43q0 267 -71.5 477t-163 337t-158.5 175z" />
<glyph unicode="*" horiz-adv-x="1314" d="M148 1330l101 177l247 -182l132 -119l-43 171l-39 307h208l-32 -305l-38 -170l127 120l247 186l103 -175l-277 -127l-172 -53l172 -49l282 -119l-105 -183l-243 182l-134 119l44 -171l40 -305l-209 -1l31 306l38 173l-127 -124l-245 -186l-104 177l278 127l169 53 l-169 49z" />
<glyph unicode="+" horiz-adv-x="1353" d="M215 528v167h210l174 -12l-7 167v228h169v-228l-9 -167l147 12h239v-167h-239l-147 7l9 -164v-240h-169v240l7 164l-174 -7h-210z" />
<glyph unicode="," horiz-adv-x="687" d="M203 -372q51 41 89 108t38 166q0 49 -15 77t-46 61q-28 30 -42.5 57t-14.5 71q0 40 18 71t48.5 48t65.5 17h12q75 0 120 -68t45 -186q0 -113 -38 -217t-96 -179t-115 -105h-2l-67 55v24z" />
<glyph unicode="-" horiz-adv-x="1310" d="M230 535v162h850v-162h-850z" />
<glyph unicode="." horiz-adv-x="597" d="M145 116q0 44 23.5 80.5t61.5 57.5t80 21q69 0 105.5 -39t36.5 -97q0 -47 -22.5 -83.5t-61 -56t-83.5 -19.5q-37 0 -69 17t-51.5 48t-19.5 71z" />
<glyph unicode="/" horiz-adv-x="882" d="M70 -363l550 1962h192l-550 -1962h-192z" />
<glyph unicode="0" horiz-adv-x="1307" d="M123 646q1 198 76 344.5t201 223.5t276 77q266 0 387.5 -170t121.5 -465q0 -201 -71.5 -354.5t-196.5 -238t-279 -84.5q-178 0 -294 88t-169.5 238.5t-51.5 340.5zM368 660q0 -258 69 -413.5t218 -155.5q153 0 218 137t65 405q0 264 -65 405t-216 141q-153 0 -221 -132 t-68 -387z" />
<glyph unicode="1" horiz-adv-x="887" d="M79 1102q106 23 211 74.5t182 115.5h1l131 -21v-1137l232 -25v-109h-718v109l254 25v904q-41 -16 -128.5 -35.5t-139.5 -23.5z" />
<glyph unicode="2" horiz-adv-x="1223" d="M88 92q187 106 342 242.5t247 281.5t92 273q0 111 -67 175t-184 64q-116 0 -199.5 -45t-152.5 -110l-69 98q45 51 119.5 102t172 85.5t202.5 34.5q143 0 240.5 -51.5t145 -136t47.5 -183.5q0 -136 -90.5 -277.5t-241 -271t-334.5 -239.5l612 47l71 157l114 -24l-50 -314 h-983z" />
<glyph unicode="3" horiz-adv-x="1141" d="M108 1129q35 34 105.5 73t162 66t182.5 27q186 0 300 -80t114 -248q0 -97 -52.5 -185t-139.5 -153.5t-190 -100.5q19 2 56 2q122 0 212.5 -45t139 -122.5t48.5 -171.5q0 -150 -89 -268.5t-252.5 -185t-380.5 -66.5q-46 0 -105 7.5t-101 17.5v124q33 -9 79.5 -14.5 t86.5 -5.5q152 0 266 48.5t175.5 132.5t61.5 187q0 137 -79 212t-251 82q-22 -5 -65.5 -15.5t-65.5 -14.5l-38 118q75 11 163 45q125 54 199.5 143.5t74.5 191.5q0 110 -65 159t-168 49q-93 0 -178.5 -30.5t-147.5 -76.5z" />
<glyph unicode="4" horiz-adv-x="1317" d="M66 100q125 231 296.5 595t319.5 700h54l180 -99l-556 -1042l-84 -127l525 30l7 379l195 18v-386l264 16v-184h-264v-332h-202v332h-677z" />
<glyph unicode="5" horiz-adv-x="1209" d="M180 -317l1 107q68 -6 118 -6q140 0 258 58t187.5 162.5t69.5 237.5q0 319 -304 319q-61 0 -135.5 -19.5t-131.5 -49.5l-58 43l90 736h574l21 39h137l-39 -227h-533l-80 -456q60 34 142 56t162 22q197 0 304.5 -107t107.5 -323q0 -159 -95.5 -299t-266 -224t-386.5 -84 q-79 0 -143 15z" />
<glyph unicode="6" horiz-adv-x="1353" d="M154 597q0 258 124 477.5t319.5 360t401.5 174.5l49 -94q-159 -51 -283 -148t-206 -222.5t-122 -267.5q54 54 138 90.5t195 36.5q140 0 237.5 -56t147.5 -160t50 -247q0 -149 -62 -278.5t-180.5 -207.5t-280.5 -78q-167 0 -286.5 83t-180.5 224t-61 313zM402 604 q0 -230 68 -373t225 -143q89 0 149.5 58t90 149t29.5 189q0 200 -70 292.5t-189 92.5q-69 0 -128.5 -19.5t-102 -48t-64.5 -57.5q-5 -41 -7 -92z" />
<glyph unicode="7" horiz-adv-x="1168" d="M73 879l44 392h929l46 -56l-550 -1566l-247 67q113 238 224 502.5t257 625.5l108 265l-594 -7l-83 -248z" />
<glyph unicode="8" horiz-adv-x="1301" d="M141 366q0 121 78 226.5t234 177.5q-121 77 -189 172.5t-68 233.5q0 116 64.5 201t170 128.5t225.5 43.5q131 0 231 -41t155.5 -117t55.5 -177q0 -109 -69.5 -212.5t-193.5 -178.5q104 -60 177 -118.5t119 -137t46 -176.5q0 -122 -71.5 -216.5t-191 -145.5t-258.5 -51 q-130 0 -247.5 41t-192.5 128.5t-75 218.5zM351 411q0 -96 36 -169t107 -113.5t172 -40.5q76 0 140.5 32t102.5 90t38 131q0 75 -42.5 132.5t-106 99t-174.5 100.5l-83 45q-85 -51 -137.5 -131t-52.5 -176zM394 1228q0 -75 46 -135t115 -106t187 -111q77 50 122 126.5 t45 156.5q0 139 -70 213.5t-190 74.5q-76 0 -134 -26.5t-89.5 -76t-31.5 -116.5z" />
<glyph unicode="9" horiz-adv-x="1355" d="M157 754q0 144 63.5 267.5t183.5 197.5t283 74q174 0 292 -79.5t175.5 -216.5t57.5 -311q0 -266 -113.5 -487t-297 -360t-388.5 -175l-50 95q230 77 371 243t195 385q-54 -51 -134 -85.5t-173 -34.5q-140 0 -245.5 60.5t-162.5 171t-57 255.5zM397 800 q0 -207 72.5 -302.5t192.5 -95.5q97 0 175.5 35.5t115.5 79.5q8 59 9 116l1 52q0 496 -290 496q-90 0 -152.5 -56.5t-93 -144.5t-30.5 -180z" />
<glyph unicode=":" horiz-adv-x="706" d="M199 116q0 44 23.5 80.5t61.5 57.5t80 21q69 0 105.5 -39t36.5 -97q0 -47 -22.5 -83.5t-61 -56t-83.5 -19.5q-37 0 -69 17t-51.5 48t-19.5 71zM199 961q0 44 23.5 80.5t61.5 57.5t80 21q69 0 105.5 -39t36.5 -97q0 -47 -22.5 -83.5t-61 -56t-83.5 -19.5q-37 0 -69 17 t-51.5 48t-19.5 71z" />
<glyph unicode=";" horiz-adv-x="706" d="M201 961q0 44 23.5 80.5t61.5 57.5t80 21q69 0 105.5 -39t36.5 -97q0 -47 -22.5 -83.5t-61 -56t-83.5 -19.5q-37 0 -69 17t-51.5 48t-19.5 71zM204 -372q51 41 89 108t38 166q0 49 -15 77t-46 61q-28 30 -42.5 57t-14.5 71q0 40 18 71t48.5 48t65.5 17h12q75 0 120 -68 t45 -186q0 -113 -38 -217t-96 -179t-115 -105h-2l-67 55v24z" />
<glyph unicode="&#x3c;" horiz-adv-x="1370" d="M168 553v126l968 499v-195l-758 -367l758 -368v-193z" />
<glyph unicode="=" horiz-adv-x="1337" d="M208 261v159h922v-159h-922zM208 811v159h922v-159h-922z" />
<glyph unicode="&#x3e;" horiz-adv-x="1370" d="M234 55v193l758 368l-758 367v195l968 -499v-126z" />
<glyph unicode="?" horiz-adv-x="994" d="M106 1807q17 13 92.5 24.5t149.5 11.5q199 0 330.5 -71.5t192.5 -185.5t61 -243q0 -94 -45 -168t-108 -125.5t-160 -114.5q-73 -47 -112.5 -78t-60.5 -65q-3 -13 -3 -47q3 -115 26 -226l-129 -32q-22 22 -44 78.5t-37.5 120t-18.5 104.5q0 59 35.5 104.5t86.5 77.5 t136 76q67 34 107 57.5t73.5 53.5t48.5 65v28q-1 110 -53 210t-155.5 163.5t-248.5 63.5q-64 0 -129 -13zM339 115q0 49 34 86.5t82 46.5q15 3 30 3q45 0 75 -25t41 -67q3 -15 3 -30q0 -48 -33 -81.5t-83 -41.5q-13 -4 -30 -4q-40 0 -73 24.5t-44 67.5q-2 14 -2 21z" />
<glyph unicode="@" horiz-adv-x="2203" d="M186 361q0 343 149.5 613t396.5 419.5t530 149.5q214 0 375.5 -84.5t252 -253t90.5 -412.5q0 -253 -99.5 -440.5t-235 -286t-232.5 -98.5q-55 0 -95 48t-46 131q-2 22 -2 38q0 85 28 252q-47 -126 -110 -234t-138 -175t-152 -67q-70 0 -135.5 50.5t-107 144t-41.5 217.5 q0 150 66 308t186.5 262.5t275.5 104.5q57 0 119.5 -13.5t113.5 -41.5q9 26 18.5 39t26.5 10q31 -10 56 -19q49 -18 69 -24q-28 -127 -59.5 -319t-42.5 -327q-4 -40 -4 -81q0 -66 11 -103.5t28 -37.5q75 0 158 78.5t139.5 218.5t56.5 314q0 229 -89.5 377t-236 215 t-321.5 67q-223 0 -414.5 -122t-306.5 -349t-115 -526q0 -250 85 -424t230.5 -261.5t326.5 -87.5q109 0 230.5 27t178.5 66l40 -90q-79 -66 -210 -106.5t-276 -40.5q-241 0 -414 106t-263.5 303t-90.5 465zM813 424q0 -103 30.5 -187t101.5 -84q46 0 105 65.5t115.5 170.5 t97.5 221q42 125 55 215q-28 29 -102 51.5t-125 22.5q-85 0 -148 -67.5t-96.5 -177t-33.5 -230.5z" />
<glyph unicode="A" horiz-adv-x="1417" d="M-34 109l127 24l493 1401h238l497 -1401l127 -24v-109h-549v109l163 24l-95 292h-588l-91 -292l171 -24v-109h-492zM419 552h507l-214 657l-44 168l-44 -170z" />
<glyph unicode="B" horiz-adv-x="1401" d="M96 0v109l168 24v1253l-165 25v111h272q68 0 174 8q82 7 141 7q281 0 407.5 -87.5t126.5 -257.5q0 -95 -36.5 -173.5t-105.5 -131t-164 -71.5h16q114 0 202 -41q94 -44 145 -127t51 -194q0 -206 -145.5 -336t-481.5 -130q-37 0 -78 2t-58 3q-121 7 -192 7h-277zM497 123 q24 -11 76 -14.5t122 -3.5q200 0 289.5 81t89.5 235q0 111 -35 179t-110.5 99.5t-198.5 31.5h-97q-105 0 -136 -2v-606zM498 861q51 -4 205 -4q283 0 283 293q0 94 -30 153.5t-98 89t-184 29.5q-72 0 -120 -5.5t-56 -6.5v-549z" />
<glyph unicode="C" horiz-adv-x="1335" d="M66 762q0 236 97.5 412t266.5 270t378 94q96 0 185.5 -14t202.5 -37l54 -11l-19 -374h-149l-56 255q-21 28 -85 44.5t-168 16.5q-128 0 -226.5 -73t-154 -215.5t-55.5 -343.5q0 -186 49.5 -342.5t153 -252t258.5 -95.5q161 0 231 74l87 211l142 -19l-44 -306 q-27 -2 -52 -8.5t-65 -20.5q-68 -24 -130 -37t-153 -13q-238 0 -406 93.5t-255 269.5t-87 422z" />
<glyph unicode="D" horiz-adv-x="1561" d="M95 0v109l169 24v1252l-158 26v111h267q50 0 105.5 3t72.5 4q118 8 182 8q383 0 569.5 -191t186.5 -537q0 -243 -95 -430t-266.5 -291t-394.5 -104q-51 0 -171 8q-124 8 -179 8h-288zM498 123q42 -11 87.5 -15t102.5 -4h46q148 3 260.5 78.5t176 223t63.5 360.5 q0 323 -138 488t-416 165q-61 0 -151 -10l-31 -3v-1283z" />
<glyph unicode="E" horiz-adv-x="1339" d="M96 0v109l168 24v1253l-165 25v111h1042l28 -317h-129l-62 190l-479 13v-565l325 6l30 166h129v-474h-129l-29 176l-326 5v-598l550 22l113 251l128 -38l-59 -359h-1135z" />
<glyph unicode="F" horiz-adv-x="1270" d="M96 1411v111h1092l21 -350h-145l-66 222l-499 14v-583l348 4l40 168h123v-477h-123l-40 171l-348 9v-567l304 -24v-109h-704v109l165 24v1253z" />
<glyph unicode="G" horiz-adv-x="1522" d="M87 738q0 247 102 428t279 277t398 96q138 0 257.5 -19.5t222.5 -44.5l-20 -355h-154l-54 237q-25 25 -89 45t-179 20q-146 0 -257 -71.5t-173.5 -213t-62.5 -345.5q0 -187 52.5 -345t161 -254.5t266.5 -96.5q90 0 169 21.5t122 63.5v438l-245 23v129h597v-129l-117 -21 v-539q-26 -1 -59.5 -9.5t-83.5 -24.5q-106 -33 -198 -52t-205 -19q-225 0 -390 98.5t-252.5 271.5t-87.5 391z" />
<glyph unicode="H" horiz-adv-x="1700" d="M100 0v109l165 24v1252l-159 26v111h566v-111l-172 -25v-540h700v540l-164 25v111h559v-111l-160 -25v-1254l160 -23v-109h-558v109l163 23v582h-700v-581l172 -24v-109h-572z" />
<glyph unicode="I" horiz-adv-x="827" d="M112 0v109l183 24v1252l-183 26v111h602v-111l-183 -25v-1253l186 -27v-106h-605z" />
<glyph unicode="J" horiz-adv-x="780" d="M-12 -276q49 13 100.5 50.5t94 95t64.5 125.5q24 82 33 183t9 307v900l-188 26v111h602v-111l-181 -26v-820v-115q0 -149 -4.5 -242.5t-19.5 -161.5q-25 -116 -95 -202t-163.5 -138.5t-194.5 -73.5z" />
<glyph unicode="K" horiz-adv-x="1489" d="M97 0v109l169 24v1253l-165 25v111h562v-111l-162 -26v-700l578 701l-165 25l-1 111h510v-110l-156 -26l-429 -486q68 -60 149.5 -176.5t191.5 -292.5q95 -151 145 -222t76 -76l90 -25v-108h-307q-36 0 -91 85t-149 261q-80 150 -136 244t-107 151l-199 -229v-380 l188 -24v-108h-592z" />
<glyph unicode="L" horiz-adv-x="1301" d="M98 0v109l168 24v1253l-165 25v111h595v-111l-193 -26v-1253l505 20l122 334l134 -23l-68 -463h-1098z" />
<glyph unicode="M" horiz-adv-x="2046" d="M1 0v109l178 23l150 1254l-214 25v111h546l314 -917l52 -230l45 230l277 917h546v-111l-222 -26l194 -1252l179 -24v-109h-594v109l177 23l-126 908l-44 399l-69 -274l-326 -1097h-129l-361 985l-111 385l-32 -397l-81 -908l197 -24v-109h-546z" />
<glyph unicode="N" horiz-adv-x="1638" d="M98 0v109l165 23v1253l-165 26v111h395l673 -983l106 -198v1045l-179 25v111h496v-111l-166 -26v-1385h-164l-689 1003l-156 272v-1142l191 -24v-109h-507z" />
<glyph unicode="O" horiz-adv-x="1480" d="M66 750q0 236 90 415t247.5 276.5t354.5 97.5q214 0 361 -93.5t220.5 -264.5t73.5 -404q0 -239 -90.5 -420.5t-250 -280.5t-359.5 -99q-208 0 -353.5 96.5t-219.5 271t-74 405.5zM326 751q0 -200 49 -348t142 -228t223 -80q127 0 219.5 76t143.5 228.5t51 376.5 q0 200 -48.5 345.5t-141.5 223t-223 77.5q-128 0 -221 -73.5t-143.5 -223.5t-50.5 -374z" />
<glyph unicode="P" horiz-adv-x="1328" d="M98 0v109l168 23v1253l-157 26v111h247q54 0 146 6q108 8 207 8q212 0 337 -50.5t178 -146.5t53 -241q0 -165 -76 -286t-210.5 -184.5t-307.5 -63.5q-54 0 -111 3t-71 6v-441l270 -23v-109h-673zM500 691q48 -9 183 -9q151 0 246.5 95.5t95.5 318.5q0 173 -84 249 t-262 76q-61 0 -123 -8q-33 -5 -56 -5v-717z" />
<glyph unicode="Q" horiz-adv-x="1502" d="M76 750q0 236 90 415t247.5 276.5t354.5 97.5q214 0 361 -93.5t220.5 -264.5t73.5 -404q0 -173 -48.5 -317.5t-137.5 -250t-209 -164.5q62 -2 128 -24.5t125 -52t152 -81.5q120 -69 199 -103.5t148 -34.5h2q42 0 55 1l33 -110q-32 -25 -80.5 -45t-131.5 -20h-11 q-92 0 -171.5 31.5t-142 77.5t-148.5 120q-68 59 -113 93.5t-97.5 60.5t-107.5 33q-72 -14 -144 -14q-208 0 -353.5 96.5t-219.5 271t-74 405.5zM336 751q0 -200 49 -348t142 -228t223 -80q127 0 219.5 76t143.5 228.5t51 376.5q0 200 -48.5 345.5t-141.5 223t-223 77.5 q-128 0 -221 -73.5t-143.5 -223.5t-50.5 -374z" />
<glyph unicode="R" horiz-adv-x="1440" d="M96 0v109l168 22v1256l-158 26v109h275q44 0 92 3t62 4q102 8 161 8q202 0 324 -44t176.5 -132t54.5 -226q0 -93 -35.5 -180.5t-103 -153t-160.5 -94.5q43 -25 85 -77.5t77 -112t86 -153.5q60 -113 96.5 -168.5t68.5 -63.5l78 -24v-108h-296q-34 0 -74.5 71t-108.5 221 q-71 159 -122 251t-102 123q-199 0 -242 3v-538l197 -22v-109h-599zM498 786q32 -3 101 -3l125 1q129 0 200.5 84t71.5 251q0 143 -73.5 222t-252.5 79q-76 0 -141 -9l-31 -3v-622z" />
<glyph unicode="S" horiz-adv-x="1215" d="M117 70l17 370h139l40 -256q34 -36 110 -61.5t165 -25.5q149 0 224.5 66.5t75.5 184.5q0 77 -41.5 132.5t-112.5 97.5t-195 98q-108 49 -194 106t-148 148t-62 215q0 114 61 203.5t174 140t263 50.5q92 0 170 -15.5t162 -39.5q44 -13 71 -18l-13 -343h-134l-46 243 q-19 21 -80 38.5t-132 17.5q-270 0 -270 -218q0 -76 41 -130t109 -95.5t201 -106.5q132 -65 216 -119t144 -137.5t60 -197.5q0 -110 -61.5 -211.5t-185 -165.5t-299.5 -64q-108 0 -197 19.5t-185 50.5q-66 21 -87 23z" />
<glyph unicode="T" horiz-adv-x="1411" d="M32 975l35 547h1266l32 -547h-143l-76 418l-320 10v-1270l283 -24v-109h-785v109l261 24v1270l-333 -10l-75 -418h-145z" />
<glyph unicode="U" horiz-adv-x="1508" d="M40 1411v111h558v-111l-170 -26v-765q0 -276 98 -396.5t277 -120.5q177 0 268 131.5t91 374.5v776l-165 26v111h479v-111l-148 -26v-766q0 -213 -71 -355.5t-195 -211t-286 -68.5q-208 0 -338 69.5t-192 214.5t-62 375v742z" />
<glyph unicode="V" horiz-adv-x="1367" d="M-34 1411v111h561v-111l-184 -25l329 -953l68 -233l59 236l303 949l-156 26v111h462v-111l-132 -26l-482 -1400h-188l-513 1400z" />
<glyph unicode="W" horiz-adv-x="2046" d="M-44 1411v111h559v-111l-183 -27l279 -946l52 -271l61 271l229 771l-56 176l-141 26v111h578v-111l-192 -26l274 -947l61 -294l53 294l261 946l-202 27v111h498v-111l-133 -27l-413 -1394h-216l-302 996l-295 -996h-206l-432 1394z" />
<glyph unicode="X" horiz-adv-x="1462" d="M12 0v109l175 23l424 628l-419 625l-150 26v111h613v-111l-181 -26l309 -500l306 500l-173 26v111h508v-111l-160 -26l-410 -585l453 -668l156 -23v-109h-613v109l174 24l-339 540l-317 -541l196 -23v-109h-552z" />
<glyph unicode="Y" horiz-adv-x="1317" d="M-28 1411v111h548v-111l-155 -26l282 -543l57 -145l65 143l268 546l-162 25v111h473v-111l-133 -25l-420 -789v-465l224 -23v-109h-686v109l219 24v459l-452 792z" />
<glyph unicode="Z" horiz-adv-x="1346" d="M65 98l793 1180l112 136l-573 -22l-112 -265l-125 17l44 384h993l51 -96l-780 -1177l-128 -138l673 39l113 310l130 -26l-48 -440h-1084z" />
<glyph unicode="[" horiz-adv-x="873" d="M191 -63v1492q0 91 21 138t65 63.5t124 16.5q73 0 136.5 -10.5t152.5 -30.5v-94h-297v-1656h297v-95q-74 -20 -144 -31t-145 -11q-79 0 -123.5 16.5t-65.5 63.5t-21 138z" />
<glyph unicode="\" horiz-adv-x="882" d="M59 1599h192l550 -1962h-192z" />
<glyph unicode="]" horiz-adv-x="873" d="M183 -144h297v1656h-297v94q89 20 152.5 30.5t136.5 10.5q80 0 124 -16.5t65 -63.5t21 -138v-1492q0 -91 -21 -138t-65.5 -63.5t-123.5 -16.5q-75 0 -145 11t-144 31v95z" />
<glyph unicode="^" horiz-adv-x="1363" d="M180 272l399 1259h200l404 -1259h-210l-293 1036l-292 -1036h-208z" />
<glyph unicode="_" horiz-adv-x="1711" d="M-20 -250h1751v-136h-1751v136z" />
<glyph unicode="`" horiz-adv-x="681" d="M-14 1675l159 139h1l330 -406l-82 -74h-1q-44 16 -131.5 81t-168.5 140t-107 120z" />
<glyph unicode="a" horiz-adv-x="1148" d="M85 302q0 133 92.5 219t243 126.5t334.5 43.5v52q0 94 -19.5 148t-67.5 79t-136 25q-169 0 -356 -95h-1l-50 104q27 24 103.5 62t174 66.5t185.5 28.5q146 0 229.5 -39.5t120.5 -126.5t37 -235v-650h122v-98q-146 -35 -220 -35q-42 0 -64 7t-32.5 28.5t-10.5 66.5v48 q-54 -53 -142 -101.5t-197 -48.5q-96 0 -174.5 35t-125 108t-46.5 182zM334 331q0 -105 52 -154t140 -49q47 0 113.5 26.5t115.5 64.5v359q-147 0 -241.5 -33.5t-137 -88.5t-42.5 -125z" />
<glyph unicode="b" horiz-adv-x="1241" d="M-5 1542v94l337 43h5l50 -34v-611q59 58 141 96t182 38q122 0 223 -59t162 -184.5t61 -315.5q0 -176 -72 -320.5t-206.5 -228t-313.5 -83.5q-97 0 -184.5 13.5t-146.5 32.5t-73 33v1466zM387 157q13 -30 67 -47.5t125 -17.5q98 0 172.5 55t116.5 165.5t42 272.5 q0 144 -37.5 240t-103.5 142t-151 46q-72 0 -133 -32.5t-98 -73.5v-750z" />
<glyph unicode="c" horiz-adv-x="1047" d="M77 554q0 171 66 310.5t196 221.5t314 82q144 0 308 -62l-10 -308h-139l-46 187q-14 33 -55.5 49t-99.5 16q-88 0 -153 -48.5t-101 -145t-36 -238.5q0 -165 43 -274t117 -161t167 -52q87 0 160.5 25.5t125.5 62.5l43 -92q-36 -37 -96 -71.5t-134.5 -56.5t-149.5 -22 q-169 0 -286 75t-175.5 205.5t-58.5 296.5z" />
<glyph unicode="d" horiz-adv-x="1272" d="M85 542q0 175 71 317.5t205 225.5t314 83q88 0 181 -19v373l-201 20v97l373 40h6l49 -36v-1527h118v-104q-65 -16 -115.5 -25.5t-104.5 -9.5q-39 0 -61.5 7.5t-34 30t-11.5 65.5v53q-61 -67 -148.5 -111.5t-194.5 -44.5q-123 0 -224 62.5t-161.5 190t-60.5 312.5z M331 558q0 -145 38.5 -240.5t104 -141t149.5 -45.5q73 0 134 32t99 74v752q-15 25 -72 43t-123 18q-150 0 -240 -119t-90 -373z" />
<glyph unicode="e" horiz-adv-x="1112" d="M85 571q0 176 69 312t191 210.5t277 74.5q192 0 297 -105t112 -303v-36q0 -105 -12 -160h-693q4 -147 50 -244t121 -143t169 -46q82 0 168.5 28.5t135.5 65.5l42 -96q-38 -39 -104.5 -74t-148 -56.5t-161.5 -21.5q-168 0 -283.5 74.5t-172.5 208t-57 311.5zM326 680h465 q4 36 4 86q-1 127 -53 204t-164 77t-177.5 -83.5t-74.5 -283.5z" />
<glyph unicode="f" horiz-adv-x="828" d="M67 991v99l191 45v95q0 127 69 234t179.5 169.5t228.5 62.5q44 0 69.5 -4.5t50.5 -11.5v-224q-21 18 -75 35t-119 17q-67 0 -104.5 -17t-54 -60t-16.5 -123l1 -173h275v-144h-275v-865l217 -18v-108h-615v108l169 19v864h-191z" />
<glyph unicode="g" horiz-adv-x="1253" d="M92 -240q0 93 54.5 168.5t131.5 114.5q-97 55 -97 168q0 75 43 138.5t113 102.5q-100 46 -153.5 130.5t-53.5 197.5q0 118 67 206t176 134.5t233 47.5h1q108 0 194 -24.5t145 -72.5q30 35 90 67t141 32h54v-194h-210q35 -73 35 -161q0 -120 -62 -213.5t-170 -145 t-242 -51.5h-1q-82 0 -153 17q-28 -25 -44 -57.5t-16 -66.5q0 -50 23.5 -76.5t71 -36.5t130.5 -10h218q391 0 391 -300q0 -116 -82.5 -214t-220.5 -155.5t-296 -57.5h-1q-268 0 -389 81.5t-121 230.5zM316 -181q0 -120 71 -182t233 -62h2q90 0 172 28t133 83t51 131 q0 65 -19.5 102.5t-71.5 56.5t-151 19h-201q-82 0 -155 13q-64 -79 -64 -189zM366 801q0 -126 56.5 -201.5t180.5 -75.5h1q114 0 165.5 68t51.5 199q0 134 -55.5 197t-171.5 63h-1q-108 0 -167.5 -58.5t-59.5 -191.5z" />
<glyph unicode="h" horiz-adv-x="1356" d="M44 1541v95l339 43h5l48 -34l1 -464l-9 -179q68 60 178 110.5t226 50.5q128 0 199.5 -49t100 -150.5t28.5 -272.5v-565l144 -17v-109h-503v108l131 17v567q0 116 -15.5 182.5t-59.5 100t-129 33.5q-72 0 -151 -29.5t-139 -74.5v-778l142 -17v-109h-491v109l120 16v1396z " />
<glyph unicode="i" horiz-adv-x="685" d="M78 0v109l162 17v838l-145 41v118l318 41h5l51 -39v-999l160 -17v-109h-551zM199 1489q0 68 39.5 115t110.5 47h1q42 0 73 -19.5t47.5 -51.5t16.5 -68q0 -70 -40 -115t-116 -45h-1q-58 0 -94.5 39t-36.5 98z" />
<glyph unicode="j" horiz-adv-x="656" d="M-16 -382q15 -2 47.5 4t61.5 17q81 30 113 138t32 283l-2 897l-146 41l2 125l317 41h5l50 -39v-1107q0 -162 -48 -274.5t-127.5 -171.5t-175.5 -70q-5 -1 -23 -1q-27 0 -57 2.5t-38 6.5zM194 1489q0 68 39.5 115t110.5 47h1q42 0 73 -19.5t47.5 -51.5t16.5 -68 q0 -70 -40 -115t-116 -45h-1q-58 0 -94.5 39t-36.5 98z" />
<glyph unicode="k" horiz-adv-x="1242" d="M52 1541v95l333 43h3l48 -34v-990l-4 -114l446 465l-161 29v102h509v-102l-157 -34l-291 -284l392 -591l120 -17v-109h-501v108l120 19l-282 457l-196 -194l5 -106v-158l144 -18v-108h-503v109l131 17v1395z" />
<glyph unicode="l" horiz-adv-x="688" d="M71 1541v95l341 43h2l49 -34v-1519l170 -17v-109h-560v109l162 17v1395z" />
<glyph unicode="m" horiz-adv-x="2054" d="M90 1004v120l295 40h5l48 -39v-81l-2 -46q45 41 116.5 79t151 62t144.5 24q110 0 177 -37t102 -115q39 34 107.5 69.5t146.5 59t145 23.5q130 0 202 -48.5t101 -149t29 -271.5v-569l143 -17v-108h-490v108l118 18v561q0 117 -17 185t-64 102.5t-135 34.5q-61 0 -133 -28 t-124 -65q18 -86 18 -225v-565l146 -18v-108h-508v108l133 18v566q0 117 -15 183t-58.5 99.5t-127.5 33.5q-70 0 -147 -30t-135 -74v-778l134 -18v-108h-488v108l125 17v839z" />
<glyph unicode="n" horiz-adv-x="1375" d="M90 1004v120l296 40h5l47 -39v-81l-1 -46q46 41 115.5 79t149 62t150.5 24q130 0 201 -48.5t99 -149.5t28 -274v-565l144 -17v-109h-502v109l128 17v566q0 116 -15.5 182.5t-58.5 100t-127 33.5q-72 0 -150 -31t-137 -75v-776l138 -17v-109h-498v109l131 17v838z" />
<glyph unicode="o" d="M79 573q0 183 76.5 318t201 206t264.5 71q174 0 290 -77t172 -211.5t56 -307.5q0 -185 -76.5 -320t-201 -205t-265.5 -70q-174 0 -289.5 77t-171.5 211.5t-56 307.5zM331 591q0 -225 67.5 -357.5t210.5 -132.5q277 0 277 453q0 225 -66.5 357.5t-210.5 132.5 q-138 0 -208 -113.5t-70 -339.5z" />
<glyph unicode="p" horiz-adv-x="1294" d="M66 -388l149 23v1329l-143 40v120l295 40h5l45 -39v-114q60 66 148 111.5t199 45.5q122 0 223 -59.5t162 -185t61 -314.5q0 -175 -71.5 -319t-204 -228.5t-308.5 -84.5q-45 0 -99 7.5t-91 17.5l6 -170v-198l205 -22v-108h-581v108zM442 154q14 -25 68.5 -44t122.5 -19 q97 0 171.5 51.5t117.5 163t43 283.5q0 145 -38.5 240t-104.5 140.5t-151 45.5q-71 0 -132 -29t-97 -68v-764z" />
<glyph unicode="q" horiz-adv-x="1247" d="M85 546q0 175 71 316.5t205 223.5t314 82q63 0 129.5 -10.5t122.5 -25.5l111 32h2l43 -39v-1493l139 -23v-105h-582v105l216 23v320l7 168q-60 -62 -144.5 -102.5t-186.5 -40.5q-121 0 -222.5 62t-163 190t-61.5 317zM330 566q0 -145 38.5 -244t105 -147t150.5 -48 q72 0 133 31t99 71v763q-12 24 -69.5 43.5t-125.5 19.5q-149 0 -240 -118.5t-91 -370.5z" />
<glyph unicode="r" horiz-adv-x="943" d="M93 0v108l157 16v840l-142 40v120l286 40h5l48 -39v-63l-2 -130h2q18 33 69.5 88.5t133 101.5t177.5 46q39 0 66 -11v-246q-19 11 -50.5 18.5t-67.5 7.5q-101 0 -174.5 -24.5t-122.5 -61.5v-726l263 -18v-107h-648z" />
<glyph unicode="s" horiz-adv-x="1043" d="M119 63v262h141l40 -152q12 -21 46.5 -40t81.5 -31t96 -12q113 0 161 42.5t48 116.5q0 52 -32.5 91.5t-96.5 74.5t-174 79q-159 62 -232 146.5t-73 218.5q0 90 54.5 158.5t149.5 106.5t214 38q92 0 162 -14.5t141 -37.5l36 -11v-253h-128l-43 140q-12 26 -64.5 45 t-117.5 19q-92 0 -142 -39t-50 -102q0 -56 29.5 -94t73.5 -62t123 -57l39 -17q114 -49 185 -92t118 -110t47 -164q0 -100 -52.5 -176t-152 -118t-235.5 -42q-102 0 -214 28t-179 58z" />
<glyph unicode="t" horiz-adv-x="834" d="M67 994v95q28 7 64.5 20t47.5 20q33 24 54 78q15 34 39.5 108.5t33.5 112.5h130l2 -291h336v-143h-335v-605q0 -122 7 -169.5t28.5 -61t78.5 -13.5h1q52 0 117.5 13t101.5 28h1l34 -98q-30 -25 -90 -50.5t-129 -42.5t-127 -17h-2q-124 0 -187 54.5t-63 182.5v779h-143z " />
<glyph unicode="u" horiz-adv-x="1307" d="M82 1036v97l296 30h1l42 -27v-706q0 -114 17 -178t60 -93.5t124 -29.5q78 0 145 30t116 69v770l-143 39v97l316 29h2l53 -27v-1023h120v-100q-58 -17 -100.5 -26.5t-97.5 -9.5q-64 0 -94.5 24.5t-30.5 82.5v52q-64 -62 -162 -110.5t-198 -48.5q-125 0 -203 44.5 t-115 141.5t-37 256v580z" />
<glyph unicode="v" horiz-adv-x="1169" d="M-3 1031v106h500v-106l-150 -26l196 -565l88 -269l74 259l189 575l-138 26v106h423v-106l-104 -27l-386 -1020h-188l-410 1021z" />
<glyph unicode="w" horiz-adv-x="1758" d="M-14 1031v106h501v-106l-158 -26l165 -589l57 -255l54 255l201 721h213l206 -720l55 -254l60 251l160 590l-155 27v106h433v-106l-114 -26l-313 -1021h-209l-216 725l-51 241l-39 -241l-208 -725h-204l-328 1021z" />
<glyph unicode="x" d="M14 0v106l137 19l347 443l-338 437l-118 26v106h530v-106l-138 -26l176 -246l59 -90l51 89l184 247l-147 26v106h441v-106l-125 -26l-329 -412l354 -469l117 -18v-106h-533v106l131 19l-243 356l-51 -89l-185 -266l165 -20v-106h-485z" />
<glyph unicode="y" horiz-adv-x="1180" d="M-3 1031v106h509v-106l-157 -26l193 -604l89 -290l80 291l181 604l-134 25v106h420v-106l-102 -25q-144 -448 -234.5 -715.5t-115.5 -324.5q-68 -172 -128.5 -272t-140 -152t-194.5 -52q-31 0 -67 4.5t-50 10.5v189q12 -7 49 -12.5t70 -5.5q60 0 110.5 24.5t102.5 95.5 t101 204h-113l-374 1005z" />
<glyph unicode="z" horiz-adv-x="1138" d="M62 94l594 789l131 132l-465 -15l-39 -190h-137v327h863l42 -92l-585 -796l-131 -128l516 22l76 217l130 -15l-30 -345h-920z" />
<glyph unicode="{" horiz-adv-x="1035" d="M177 615v161q116 0 170 13.5t69 41.5t15 82q0 51 -15.5 97.5t-47.5 120.5q-36 80 -54 138t-18 124q0 128 72 192t244 64q127 0 266 -36v-100q-28 1 -85.5 1.5t-85.5 0.5q-65 0 -105 -13t-61.5 -47.5t-21.5 -99.5q0 -39 11.5 -85.5t35.5 -120.5q26 -80 40 -136t14 -107 q0 -95 -67 -147.5t-181 -70.5q248 -37 248 -225q0 -51 -14 -107t-40 -136q-23 -72 -35 -119t-12 -86q0 -65 21.5 -100t61.5 -47.5t105 -12.5q29 0 86 1t85 2v-102q-139 -36 -266 -36q-173 0 -244.5 65t-71.5 191q0 66 18 123t54 138q32 72 47.5 119.5t15.5 98.5 q0 57 -15 89.5t-70 51.5t-169 19z" />
<glyph unicode="|" horiz-adv-x="865" d="M341 -186v1966h183v-1966h-183z" />
<glyph unicode="}" horiz-adv-x="1035" d="M157 -142q28 -1 85 -2t86 -1q65 0 105 12.5t61.5 47.5t21.5 100q0 39 -12 86t-35 119q-26 80 -40 136t-14 107q0 188 248 225q-114 18 -181 70.5t-67 147.5q0 51 14 107t40 136q24 74 35.5 120.5t11.5 85.5q0 65 -21.5 99.5t-61.5 47.5t-105 13q-28 0 -85.5 -0.5 t-85.5 -1.5v100q139 36 266 36q172 0 244 -64t72 -192q0 -66 -18 -124t-54 -138q-32 -74 -47.5 -120.5t-15.5 -97.5q0 -54 15 -82t69 -41.5t170 -13.5v-161q-114 0 -169 -19t-70 -51.5t-15 -89.5q0 -51 15.5 -98.5t47.5 -119.5q36 -81 54 -138t18 -123q0 -126 -71.5 -191 t-244.5 -65q-127 0 -266 36v102z" />
<glyph unicode="~" horiz-adv-x="1416" d="M215 592q27 47 75 90t111.5 70.5t132.5 27.5q46 0 85 -13.5t69 -32t71 -49.5q50 -37 80.5 -53.5t67.5 -16.5q66 0 116 30t92 80l84 -95q-29 -50 -77 -93t-110.5 -69.5t-131.5 -26.5q-44 0 -81.5 13t-65.5 31t-68 48q-49 38 -82 56t-74 18q-63 0 -114 -30.5t-96 -79.5z " />
<glyph unicode="&#xa2;" horiz-adv-x="1187" d="M121 554q0 157 56 288t165.5 216t265.5 104l12 213h143l-11 -209q116 -9 253 -60l-10 -308h-139l-46 187q-14 33 -55.5 49t-99.5 16q-88 0 -153 -48.5t-101 -145t-36 -238.5q0 -165 43 -274t117 -161t167 -52q87 0 160.5 25.5t125.5 62.5l43 -92q-52 -54 -150 -98.5 t-202 -50.5l-11 -221h-143l12 230q-133 24 -224 103t-136.5 198.5t-45.5 265.5z" />
<glyph unicode="&#xa3;" horiz-adv-x="1509" d="M103 90q0 42 34.5 79.5t92.5 59.5t123 19q18 33 30 119t12 163v224h-197v118h197v150q0 150 69.5 268t187 183.5t255.5 65.5q100 0 184 -26t141 -74l-115 -167q-11 22 -49.5 53t-96 54t-123.5 23q-93 0 -153.5 -67t-60.5 -260v-203h307v-118h-307v-175 q0 -115 -35.5 -201.5t-95.5 -153.5q40 -4 81.5 -12.5t113.5 -25.5q97 -23 160.5 -34t123.5 -11q79 0 122 20t59.5 60t16.5 106q0 56 -17 111t-38 75h241q17 -19 29 -61t12 -100q0 -93 -51.5 -178t-144 -137t-209.5 -52q-90 0 -167 19.5t-180 57.5q-80 30 -133 44.5 t-106 15.5q-49 -57 -100 -90t-106 -33q-42 0 -74.5 22t-32.5 69z" />
<glyph unicode="&#xa5;" horiz-adv-x="1595" d="M137 1423v99h553v-99l-158 -26l256 -435l59 -114l72 117l241 432l-165 26v99h478v-99l-145 -28l-344 -556h390v-117h-457v-249h457v-118h-457v-231l236 -25v-99h-666v99l230 26v230h-458v118h458v245l-3 4h-455v117h378l-367 557z" />
<glyph unicode="&#xa8;" horiz-adv-x="1022" d="M139 1492q0 67 38 113.5t109 46.5h1q61 0 96.5 -41t35.5 -97q0 -70 -39.5 -114.5t-113.5 -44.5h-1q-57 0 -91.5 39t-34.5 98zM607 1492q0 67 38.5 113.5t108.5 46.5h1q62 0 97.5 -41t35.5 -97q0 -70 -39.5 -114.5t-115.5 -44.5h-1q-55 0 -90 40t-35 97z" />
<glyph unicode="&#xa9;" horiz-adv-x="2129" d="M195 1003q0 239 116 439.5t315.5 318t438.5 117.5q238 0 437.5 -117.5t315.5 -318t116 -439.5q0 -240 -116 -441.5t-315.5 -319.5t-437.5 -118q-239 0 -438.5 118t-315.5 319.5t-116 441.5zM331 1003q0 -205 96.5 -379.5t265 -277.5t372.5 -103t371.5 103t264 277.5 t96.5 379.5q0 204 -96.5 378.5t-264 277t-371.5 102.5t-372.5 -103t-265 -277t-96.5 -378zM618 995q0 139 66.5 254.5t183 182.5t260.5 67q73 0 150.5 -17t105.5 -44l-2 -229h-116l-46 132q-24 18 -57.5 26.5t-104.5 8.5q-78 0 -134 -42.5t-85.5 -120t-29.5 -181.5 q0 -108 41.5 -191.5t116 -130t168.5 -46.5q61 0 114.5 22t95.5 61l49 -80q-30 -38 -80 -73t-114 -57.5t-132 -22.5q-145 0 -246 61t-152.5 169.5t-51.5 250.5z" />
<glyph unicode="&#xab;" horiz-adv-x="1916" d="M235 533v156l659 438l66 -112l-463 -401l468 -392l-71 -114zM979 533v156l659 438l66 -112l-463 -401l468 -392l-71 -114z" />
<glyph unicode="&#xad;" horiz-adv-x="1310" d="M230 535v162h850v-162h-850z" />
<glyph unicode="&#xae;" horiz-adv-x="2129" d="M195 1003q0 239 116 439.5t315.5 318t438.5 117.5q238 0 437.5 -117.5t315.5 -318t116 -439.5q0 -240 -116 -441.5t-315.5 -319.5t-437.5 -118q-239 0 -438.5 118t-315.5 319.5t-116 441.5zM331 1003q0 -205 96.5 -379.5t265 -277.5t372.5 -103t371.5 103t264 277.5 t96.5 379.5q0 204 -96.5 378.5t-264 277t-371.5 102.5t-372.5 -103t-265 -277t-96.5 -378zM665 519v87l91 27v727l-91 23v98h163h39q25 0 91 2l121 3q118 0 202 -30t127 -86t43 -133q0 -114 -52 -189.5t-144 -100.5q55 -29 82.5 -75t50.5 -116q17 -47 29.5 -72.5t34 -44.5 t56.5 -23v-97h-171q-37 0 -59 22t-33.5 54.5t-24.5 90.5q-14 60 -26.5 98.5t-37.5 72.5t-65 52l-163 2v-284l99 -21v-87h-362zM928 1035q23 -5 58.5 -6.5t88.5 -1.5q51 0 92.5 24t65 64.5t23.5 89.5q0 94 -49.5 134.5t-158.5 40.5q-42 0 -63.5 -1.5t-56.5 -8.5v-335z" />
<glyph unicode="&#xb4;" horiz-adv-x="681" d="M204 1408l330 406h1l159 -139q-26 -44 -106 -118.5t-168 -139.5t-133 -83h-2z" />
<glyph unicode="&#xb8;" horiz-adv-x="615" d="M13 -467l1 153q19 -7 45 -10.5t41 -3.5h1q52 0 81.5 9.5t45 40t15.5 91.5q0 49 -21 104t-41 86l68 10l42 -10q26 -24 58 -70.5t54 -106.5t19 -120q-5 -108 -70.5 -154t-193.5 -46h-1q-35 0 -76.5 7.5t-67.5 19.5z" />
<glyph unicode="&#xbb;" horiz-adv-x="1908" d="M224 222l468 392l-463 401l66 112l659 -438v-156l-659 -425zM945 222l468 392l-463 401l66 112l659 -438v-156l-659 -425z" />
<glyph unicode="&#x192;" horiz-adv-x="1068" d="M203 987l8 92l210 56l11 82q11 143 79.5 249.5t169 162.5t204.5 56q60 0 100.5 -5.5t55.5 -12.5l-22 -186q-23 13 -64 23.5t-103 10.5q-56 0 -96 -19t-67 -70.5t-35 -146.5l-17 -144h310l-12 -148h-311l-116 -1343h-215l114 1343h-204z" />
<glyph unicode="&#x2c6;" horiz-adv-x="1053" d="M148 1382l288 399h180l281 -398l-90 -58l-281 281l-296 -282z" />
<glyph unicode="&#x2da;" horiz-adv-x="1020" d="M176 1593q0 86 49 149.5t128.5 96.5t167.5 33h1q102 0 174 -36t109 -99t37 -143q0 -88 -45.5 -152.5t-122 -98.5t-167.5 -34h-1q-110 0 -184 37t-110 101.5t-36 145.5zM335 1598q0 -78 45 -130.5t132 -52.5h1q91 0 131.5 42t40.5 128q0 78 -42 128t-129 50h-1 q-89 0 -133.5 -43.5t-44.5 -121.5z" />
<glyph unicode="&#x2dc;" horiz-adv-x="1022" d="M84 1448q15 48 55 97.5t100 83t132 33.5q42 0 76.5 -13.5t59 -32t58.5 -49.5q41 -37 68 -54t61 -17q42 0 71.5 20t43.5 41t33 56l98 -62q-35 -92 -102 -153.5t-166 -61.5q-41 0 -75 13t-59 31t-60 48q-43 38 -73.5 56.5t-68.5 18.5q-41 0 -71.5 -20t-46 -40.5 t-37.5 -56.5z" />
<glyph unicode="&#x400;" horiz-adv-x="1339" d="M96 0v109l168 24v1253l-165 25v111h1042l28 -317h-129l-62 190l-479 13v-565l325 6l30 166h129v-474h-129l-29 176l-326 5v-598l550 22l113 251l128 -38l-59 -359h-1135zM356 1885l152 127h1l331 -311l-80 -68h-1q-49 16 -133.5 59t-161 95.5t-108.5 97.5z" />
<glyph unicode="&#x401;" horiz-adv-x="1339" d="M96 0v109l168 24v1253l-165 25v111h1042l28 -317h-129l-62 190l-479 13v-565l325 6l30 166h129v-474h-129l-29 176l-326 5v-598l550 22l113 251l128 -38l-59 -359h-1135zM308 1823q0 68 38.5 114t108.5 46h1q41 0 71 -19.5t45.5 -51t15.5 -66.5q0 -70 -39.5 -114.5 t-114.5 -44.5h-1q-55 0 -90 39.5t-35 96.5zM808 1823q0 68 38.5 114t107.5 46h1q42 0 72 -19.5t45.5 -51t15.5 -66.5q0 -70 -39 -114.5t-114 -44.5h-1q-56 0 -91 39.5t-35 96.5z" />
<glyph unicode="&#x402;" horiz-adv-x="1728" d="M64 1039l27 483h1323l2 -483h-144l-48 351l-381 15v-621l1 1q52 35 149 62.5t185 27.5q176 0 277.5 -63.5t142 -176t40.5 -275.5q0 -224 -55 -398t-163 -272.5t-262 -98.5q-34 0 -73 5.5t-58 13.5l-5 123q40 -6 103 -6q100 0 161.5 67t89 199t27.5 336q0 141 -27.5 229.5 t-89 132t-165.5 43.5q-80 0 -143.5 -17t-133.5 -50h-1v-532l202 -25v-110h-693v110l253 25v1270l-333 -15l-61 -351h-147z" />
<glyph unicode="&#x403;" horiz-adv-x="1174" d="M50 0v108l225 27v1249l-218 30v108h1070l15 -542h-149l-62 410l-418 14v-1270l341 -26v-108h-804zM440 1701l331 311h1l153 -127q-36 -47 -113 -99.5t-160 -95t-131 -57.5h-1z" />
<glyph unicode="&#x404;" horiz-adv-x="1341" d="M66 762q0 225 98 402t268.5 275.5t380.5 98.5q94 0 183 -14t188 -37q44 -10 67 -14l-18 -358h-150l-56 241q-31 29 -90.5 45.5t-162.5 16.5q-120 0 -214.5 -65t-152 -191t-66.5 -304q125 2 462 14l175 5v-189q-61 3 -304.5 11t-332.5 9q10 -169 62 -307.5t148 -221.5 t233 -83q103 0 160 18.5t93 54.5l89 205l136 -14l-44 -304q-28 -2 -56 -9t-67 -19q-78 -24 -148 -37.5t-173 -13.5q-222 0 -381.5 97.5t-243 275t-83.5 412.5z" />
<glyph unicode="&#x405;" horiz-adv-x="1215" d="M117 70l17 370h139l40 -256q34 -36 110 -61.5t165 -25.5q149 0 224.5 66.5t75.5 184.5q0 77 -41.5 132.5t-112.5 97.5t-195 98q-108 49 -194 106t-148 148t-62 215q0 114 61 203.5t174 140t263 50.5q92 0 170 -15.5t162 -39.5q44 -13 71 -18l-13 -343h-134l-46 243 q-19 21 -80 38.5t-132 17.5q-270 0 -270 -218q0 -76 41 -130t109 -95.5t201 -106.5q132 -65 216 -119t144 -137.5t60 -197.5q0 -110 -61.5 -211.5t-185 -165.5t-299.5 -64q-108 0 -197 19.5t-185 50.5q-66 21 -87 23z" />
<glyph unicode="&#x406;" horiz-adv-x="827" d="M112 0v109l183 24v1252l-183 26v111h602v-111l-183 -25v-1253l186 -27v-106h-605z" />
<glyph unicode="&#x407;" horiz-adv-x="827" d="M26 1823q0 68 38.5 114t108.5 46h1q41 0 71 -19.5t45.5 -51t15.5 -66.5q0 -70 -39.5 -114.5t-114.5 -44.5h-1q-55 0 -90 39.5t-35 96.5zM112 0v109l183 24v1252l-183 26v111h602v-111l-183 -25v-1253l186 -27v-106h-605zM526 1823q0 68 38.5 114t107.5 46h1 q42 0 72 -19.5t45.5 -51t15.5 -66.5q0 -70 -39 -114.5t-114 -44.5h-1q-56 0 -91 39.5t-35 96.5z" />
<glyph unicode="&#x408;" horiz-adv-x="780" d="M-12 -276q49 13 100.5 50.5t94 95t64.5 125.5q24 82 33 183t9 307v900l-188 26v111h602v-111l-181 -26v-820v-115q0 -149 -4.5 -242.5t-19.5 -161.5q-25 -116 -95 -202t-163.5 -138.5t-194.5 -73.5z" />
<glyph unicode="&#x409;" horiz-adv-x="2079" d="M59 182q8 -1 47.5 -4.5t112.5 -3.5q42 0 73 21t56 69q45 80 76 191t49 297t18 467v170l-199 22v111h959v-3l1 3h189v-111l-190 -26v-533q11 3 107.5 6t149.5 4q166 0 282.5 -49t176.5 -142.5t60 -223.5q0 -148 -67.5 -252t-190 -157.5t-283.5 -53.5q-14 0 -130 6 q-152 10 -213 10h-335v109l213 25l1 1252h-393v-181q0 -390 -42.5 -659.5t-118.5 -403.5q-46 -80 -107.5 -117t-144.5 -37q-40 0 -80 3.5t-61 8.5zM1251 118l1 1q44 -10 82.5 -14.5t108.5 -4.5q164 0 250 86t86 244q0 152 -87.5 226.5t-247.5 74.5q-42 0 -112.5 -2t-80.5 -4 v-607z" />
<glyph unicode="&#x40a;" horiz-adv-x="2204" d="M97 0v109l169 25v1251l-161 26v111h567v-111l-173 -25v-540h639l1 544l-166 30v102h570v-102l-171 -30v-528h255q164 0 280 -49t176.5 -142.5t60.5 -223.5q0 -235 -142 -351.5t-388 -116.5q-33 0 -185 10q-23 1 -97 6t-110 5h-249v110l165 24v581h-639v-581l178 -24v-110 h-580zM1372 125l43 -7q44 -8 77 -12t71 -4q163 0 249.5 85.5t86.5 243.5q0 151 -88 225.5t-249 74.5h-190v-606z" />
<glyph unicode="&#x40b;" horiz-adv-x="1784" d="M71 1039l26 483h1353l3 -483h-142l-51 351l-404 14v-613l1 1q67 34 176 58.5t184 24.5q155 0 246 -42.5t133 -141t42 -270.5v-288l153 -24v-109h-526v109l141 25v215q0 140 -20 220.5t-71.5 120t-147.5 39.5q-74 0 -127 -7.5t-89.5 -18.5t-93.5 -32h-1v-537l201 -25v-109 h-701v109l260 24v1271l-337 -14l-62 -351h-146z" />
<glyph unicode="&#x40c;" horiz-adv-x="1445" d="M102 0v109l163 25v1251l-163 26v111h553v-111l-161 -26v-579h168l396 578l-162 27v111h508v-111l-161 -25l-431 -592q53 -22 110.5 -84.5t109.5 -137t123 -187.5q76 -121 120.5 -181.5t76.5 -70.5l80 -24v-109h-267q-34 0 -75 45t-81.5 110.5t-104.5 177.5 q-68 120 -113.5 192.5t-93 122.5t-88.5 50h-115v-565l171 -27v-106h-563zM627 1701l331 311h1l153 -127q-36 -47 -113 -99.5t-160 -95t-131 -57.5h-1z" />
<glyph unicode="&#x40d;" horiz-adv-x="1727" d="M98 0v109l168 25v1251l-161 26v111h578v-110l-187 -26v-998l137 210l598 735v53l-170 25v111h562v-111l-161 -26v-1252l170 -24v-109h-575v109l174 24v1010l-125 -199l-610 -740v-70l180 -25v-109h-578zM569 1885l152 127h1l331 -311l-80 -68h-1q-49 16 -133.5 59 t-161 95.5t-108.5 97.5z" />
<glyph unicode="&#x40e;" horiz-adv-x="1286" d="M-13 1411v111h563v-111l-191 -26l311 -707l55 -175l61 177l254 706l-164 25v111h445v-111l-112 -26l-427 -1061l-17 -41q-38 -93 -73 -154t-97 -106.5t-155 -45.5q-54 0 -107 10.5t-86 26.5v158q23 -1 72 -1.5t74 -0.5q66 0 102.5 12.5t61 44t47.5 95.5l-500 1064z M286 1969l2 44h170q34 0 34 -84q0 -79 43.5 -122t144.5 -43t144.5 43t43.5 122q0 84 34 84h170l2 -44q0 -308 -395 -308q-191 0 -292 76.5t-101 231.5z" />
<glyph unicode="&#x40f;" horiz-adv-x="1634" d="M89 0v109l177 24v1252l-168 26v111h593v-111l-194 -26v-1259h640v1260l-172 25v111h566v-111l-163 -26v-1251l177 -25v-109h-595q-4 -5 -24 -178t-20 -201h-156q0 29 -20.5 201.5t-24.5 177.5h-616z" />
<glyph unicode="&#x410;" horiz-adv-x="1417" d="M-34 109l127 24l493 1401h238l497 -1401l127 -24v-109h-549v109l163 24l-95 292h-588l-91 -292l171 -24v-109h-492zM419 552h507l-214 657l-44 168l-44 -170z" />
<glyph unicode="&#x411;" horiz-adv-x="1344" d="M59 0v109l207 23v1253l-205 26v111h1112l21 -384h-149l-68 254l-478 12v-493q38 3 113 6t143 3q259 0 390.5 -115t131.5 -329q0 -158 -68.5 -268.5t-191 -167t-283.5 -56.5q-14 0 -130 6q-154 10 -214 10h-331zM499 121q39 -10 78.5 -14.5t111.5 -4.5q167 0 254 92 t87 265q0 166 -88.5 248t-251.5 82q-111 0 -191 -6v-662z" />
<glyph unicode="&#x412;" horiz-adv-x="1401" d="M96 0v109l168 24v1253l-165 25v111h272q68 0 174 8q82 7 141 7q281 0 407.5 -87.5t126.5 -257.5q0 -95 -36.5 -173.5t-105.5 -131t-164 -71.5q125 3 218.5 -41t144.5 -127t51 -194q0 -206 -145.5 -336t-481.5 -130q-37 0 -78 2t-58 3q-121 7 -192 7h-277zM497 123 q24 -11 76 -14.5t122 -3.5q200 0 289.5 81t89.5 235q0 111 -35 179t-110.5 99.5t-198.5 31.5h-97q-105 0 -136 -2v-606zM498 861q51 -4 205 -4q283 0 283 293q0 94 -30 153.5t-98 89t-184 29.5q-72 0 -120 -5.5t-56 -6.5v-549z" />
<glyph unicode="&#x413;" horiz-adv-x="1174" d="M50 0v108l225 27v1249l-218 30v108h1070l15 -542h-149l-62 410l-418 14v-1270l341 -26v-108h-804z" />
<glyph unicode="&#x414;" horiz-adv-x="1504" d="M38 -379q3 83 12.5 279t12.5 233l6 -6v6h145q49 63 107 200.5t103.5 375.5t45.5 560v117l-209 25v111h1159v-111l-192 -25v-1253h185q0 -22 -15 -263t-17 -247h-143q-1 38 -26 197.5t-33 179.5h-902q-5 -10 -44.5 -169.5t-50.5 -209.5h-144zM404 133h593l2 1259h-391 v-135q2 -285 -32.5 -518.5t-82.5 -386t-89 -219.5z" />
<glyph unicode="&#x415;" horiz-adv-x="1339" d="M96 0v109l168 24v1253l-165 25v111h1042l28 -317h-129l-62 190l-479 13v-565l325 6l30 166h129v-474h-129l-29 176l-326 5v-598l550 22l113 251l128 -38l-59 -359h-1135z" />
<glyph unicode="&#x416;" horiz-adv-x="2131" d="M14 0v109l81 24q31 10 74 69t121 181q71 112 123 186.5t110 137t111 86.5l-429 593l-160 25v111h503v-111l-153 -26l388 -579h170v579l-166 26v111h558v-111l-167 -25v-580h170l387 578l-152 27v111h505v-111l-161 -25l-430 -593q54 -24 112 -86.5t108.5 -136 t123.5 -187.5q78 -122 121 -181t75 -69l81 -24v-109h-267q-34 0 -76 45t-84 112t-104 177q-69 121 -114.5 192.5t-92.5 121.5t-88 50h-114v-565l172 -27v-106h-566v109l169 25v564h-114q-41 0 -88.5 -50t-93.5 -123.5t-113 -191.5q-66 -115 -106 -179.5t-81.5 -109 t-75.5 -44.5h-267z" />
<glyph unicode="&#x417;" horiz-adv-x="1243" d="M92 69l43 352h103l67 -257q94 -53 268 -53q140 0 218.5 81.5t78.5 238.5q0 131 -68 212.5t-251 81.5h-145v124h120q81 0 155.5 34t121.5 104.5t47 174.5q0 132 -75.5 195t-200.5 63q-90 0 -146 -23t-76 -62l-44 -176h-139l-21 313q41 2 135 25q96 20 156.5 30.5 t122.5 10.5q258 0 399 -86t141 -259q0 -111 -51.5 -192t-132 -128.5t-171.5 -66.5q133 -3 223 -52.5t133.5 -129.5t43.5 -176q0 -216 -149 -338t-470 -122q-134 0 -239 24t-197 57z" />
<glyph unicode="&#x418;" horiz-adv-x="1727" d="M98 0v109l168 25v1251l-161 26v111h578v-110l-187 -26v-998l137 210l598 735v53l-170 25v111h562v-111l-161 -26v-1252l170 -24v-109h-575v109l174 24v1010l-125 -199l-610 -740v-70l180 -25v-109h-578z" />
<glyph unicode="&#x419;" horiz-adv-x="1727" d="M98 0v109l168 25v1251l-161 26v111h578v-110l-187 -26v-998l137 210l598 735v53l-170 25v111h562v-111l-161 -26v-1252l170 -24v-109h-575v109l174 24v1010l-125 -199l-610 -740v-70l180 -25v-109h-578zM478 1969l2 44h170q34 0 34 -84q0 -79 43.5 -122t144.5 -43 t144.5 43t43.5 122q0 84 34 84h170l2 -44q0 -308 -395 -308q-191 0 -292 76.5t-101 231.5z" />
<glyph unicode="&#x41a;" horiz-adv-x="1445" d="M102 0v109l163 25v1251l-163 26v111h553v-111l-161 -26v-579h168l396 578l-162 27v111h508v-111l-161 -25l-431 -592q53 -22 110.5 -84.5t109.5 -137t123 -187.5q76 -121 120.5 -181.5t76.5 -70.5l80 -24v-109h-267q-34 0 -75 45t-81.5 110.5t-104.5 177.5 q-68 120 -113.5 192.5t-93 122.5t-88.5 50h-115v-565l171 -27v-106h-563z" />
<glyph unicode="&#x41b;" horiz-adv-x="1517" d="M59 182q8 -1 47.5 -4.5t112.5 -3.5q42 0 73 21t56 69q46 80 76.5 191.5t48.5 298.5t18 473v158l-235 26v111h1183v-111l-188 -26v-1252l208 -24v-109h-651v109l213 25l1 1252h-393v-181q0 -391 -42 -660.5t-119 -402.5q-45 -80 -106.5 -117t-145.5 -37q-40 0 -80 3.5 t-61 8.5z" />
<glyph unicode="&#x41c;" horiz-adv-x="2046" d="M1 0v109l178 23l150 1254l-214 25v111h546l314 -917l52 -230l45 230l277 917h546v-111l-222 -26l194 -1252l179 -24v-109h-594v109l177 23l-126 908l-44 399l-69 -274l-326 -1097h-129l-361 985l-111 385l-32 -397l-81 -908l197 -24v-109h-546z" />
<glyph unicode="&#x41d;" horiz-adv-x="1700" d="M100 0v109l165 24v1252l-159 26v111h566v-111l-172 -25v-540h700v540l-164 25v111h559v-111l-160 -25v-1254l160 -23v-109h-558v109l163 23v582h-700v-581l172 -24v-109h-572z" />
<glyph unicode="&#x41e;" horiz-adv-x="1480" d="M66 750q0 236 90 415t247.5 276.5t354.5 97.5q214 0 361 -93.5t220.5 -264.5t73.5 -404q0 -239 -90.5 -420.5t-250 -280.5t-359.5 -99q-208 0 -353.5 96.5t-219.5 271t-74 405.5zM326 751q0 -200 49 -348t142 -228t223 -80q127 0 219.5 76t143.5 228.5t51 376.5 q0 200 -48.5 345.5t-141.5 223t-223 77.5q-128 0 -221 -73.5t-143.5 -223.5t-50.5 -374z" />
<glyph unicode="&#x41f;" horiz-adv-x="1620" d="M92 1411v111h1438v-110l-174 -28v-1251l192 -24v-109h-589v109l165 25v1257h-625v-1257l188 -25v-109h-587v109l166 25v1251z" />
<glyph unicode="&#x420;" horiz-adv-x="1328" d="M98 0v109l168 23v1253l-157 26v111h247q54 0 146 6q108 8 207 8q212 0 337 -50.5t178 -146.5t53 -241q0 -165 -76 -286t-210.5 -184.5t-307.5 -63.5q-54 0 -111 3t-71 6v-441l270 -23v-109h-673zM500 691q48 -9 183 -9q151 0 246.5 95.5t95.5 318.5q0 173 -84 249 t-262 76q-61 0 -123 -8q-33 -5 -56 -5v-717z" />
<glyph unicode="&#x421;" horiz-adv-x="1335" d="M66 762q0 236 97.5 412t266.5 270t378 94q96 0 185.5 -14t202.5 -37l54 -11l-19 -374h-149l-56 255q-21 28 -85 44.5t-168 16.5q-128 0 -226.5 -73t-154 -215.5t-55.5 -343.5q0 -186 49.5 -342.5t153 -252t258.5 -95.5q161 0 231 74l87 211l142 -19l-44 -306 q-27 -2 -52 -8.5t-65 -20.5q-68 -24 -130 -37t-153 -13q-238 0 -406 93.5t-255 269.5t-87 422z" />
<glyph unicode="&#x422;" horiz-adv-x="1411" d="M32 975l35 547h1266l32 -547h-143l-76 418l-320 10v-1270l283 -24v-109h-785v109l261 24v1270l-333 -10l-75 -418h-145z" />
<glyph unicode="&#x423;" horiz-adv-x="1286" d="M-13 1411v111h563v-111l-191 -26l311 -707l55 -175l61 177l254 706l-164 25v111h445v-111l-112 -26l-427 -1061l-17 -41q-38 -93 -73 -154t-97 -106.5t-155 -45.5q-54 0 -107 10.5t-86 26.5v158q23 -1 72 -1.5t74 -0.5q66 0 102.5 12.5t61 44t47.5 95.5l-500 1064z" />
<glyph unicode="&#x424;" horiz-adv-x="1570" d="M33 778q0 140 75 252t220 180.5t349 80.5v137l-192 27v109h599v-109l-190 -27v-136q258 -8 400 -80.5t192.5 -183t50.5 -255.5q0 -141 -76.5 -256.5t-221.5 -187.5t-345 -85v-152l191 -28v-107h-599v111l191 26v148q-255 8 -397.5 84t-194.5 190.5t-52 261.5zM286 790 q0 -180 81 -305t310 -144v857q-158 -11 -244.5 -67.5t-116.5 -141t-30 -199.5zM894 340q157 12 242.5 71t116 147.5t30.5 209.5q0 112 -29.5 200.5t-115.5 151.5t-244 77v-857z" />
<glyph unicode="&#x425;" horiz-adv-x="1462" d="M12 0v109l175 23l424 628l-419 625l-150 26v111h613v-111l-181 -26l309 -500l306 500l-173 26v111h508v-111l-160 -26l-410 -585l453 -668l156 -23v-109h-613v109l174 24l-339 540l-317 -541l196 -23v-109h-552z" />
<glyph unicode="&#x426;" horiz-adv-x="1636" d="M75 0v108l191 27v1251l-169 25v111h597v-111l-197 -26v-1257h619v1258l-154 25v111h552v-111l-166 -25v-1253h252q0 -20 -27.5 -261.5t-29.5 -248.5h-144q-1 45 -14 201.5t-19 175.5h-1291z" />
<glyph unicode="&#x427;" horiz-adv-x="1423" d="M16 1409v113h521v-113l-164 -27v-262q0 -181 21 -260t74 -103t172 -24q80 0 159.5 20.5t125.5 55.5v577l-174 25v111h585v-111l-179 -26v-1252l180 -27v-106h-614v109l202 25v547q-61 -44 -157.5 -71t-189.5 -27q-145 0 -240 43t-145.5 145.5t-50.5 277.5v333z" />
<glyph unicode="&#x428;" horiz-adv-x="2247" d="M75 0v109l191 25v1251l-169 26v111h579v-111l-179 -26v-1252h517v1253l-147 25v111h530v-111l-156 -26v-1252h509v1252l-148 26v111h547v-111l-167 -25v-1252l189 -25v-109h-2096z" />
<glyph unicode="&#x429;" horiz-adv-x="2273" d="M75 0v109l191 25v1252l-169 25v111h579v-111l-179 -25v-1253h517v1253l-147 25v111h530v-111l-156 -26v-1252h509v1252l-148 26v111h547v-111l-167 -25v-1253h253q0 -21 -28 -262t-31 -248h-143q-1 45 -14 201.5t-19 175.5h-1925z" />
<glyph unicode="&#x42a;" horiz-adv-x="1685" d="M72 1004l28 518h938v-109l-187 -28v-465h257q166 0 283 -52.5t177.5 -152t60.5 -239.5q0 -158 -68.5 -268.5t-191 -167t-284.5 -56.5q-14 0 -130 6q-152 10 -213 10h-396v108l268 26v1271l-328 -15l-64 -386h-150zM851 119q43 -10 82 -14.5t109 -4.5q165 0 252.5 93 t87.5 266q0 167 -89 250t-250 83h-192v-673z" />
<glyph unicode="&#x42b;" horiz-adv-x="2157" d="M112 0v109l183 24v1252l-183 26v111h602v-111l-183 -25v-1253l186 -27v-106h-605zM924 0v109l169 22v1259l-164 30v102h590v-102l-193 -30v-467h256q166 0 282.5 -53t176.5 -153t60 -240q0 -157 -69.5 -268t-192.5 -168t-283 -57q-35 0 -137 7q-162 9 -209 9l1 1l-2 -1 h-285zM1326 120q40 -10 80 -14.5t111 -4.5q164 0 250 93t86 267q0 167 -87.5 250t-247.5 83h-192v-674z" />
<glyph unicode="&#x42c;" horiz-adv-x="1330" d="M97 0v109l169 22v1259l-164 30v102h590v-102l-193 -30v-467h256q166 0 282.5 -53t176.5 -153t60 -240q0 -157 -69.5 -268t-192.5 -168t-283 -57q-35 0 -137 7q-162 9 -209 9l1 1l-2 -1h-285zM499 120q40 -10 80 -14.5t111 -4.5q164 0 250 93t86 267q0 167 -87.5 250 t-247.5 83h-192v-674z" />
<glyph unicode="&#x42d;" horiz-adv-x="1356" d="M89 354l147 24l87 -192q41 -38 98.5 -63t166.5 -25q124 0 221 72.5t153.5 210.5t59.5 327q-86 -1 -330.5 -9t-305.5 -11v189l173 -5q328 -12 458 -14q-16 160 -70 286.5t-149 201t-226 74.5q-70 0 -116 -13.5t-72.5 -33t-54.5 -50.5l-60 -189l-157 -1l4 328q28 1 55 7.5 t71 18.5q81 24 156 37.5t184 13.5q216 0 376.5 -99t246 -278t85.5 -412q0 -227 -93 -402.5t-259.5 -272.5t-378.5 -97q-90 0 -155.5 13t-141.5 36q-49 15 -77 21.5t-57 6.5z" />
<glyph unicode="&#x42e;" horiz-adv-x="2204" d="M99 0v109l167 24v1253l-161 25v111h558v-111l-166 -25v-537h325q22 213 118.5 369.5t243 238.5t316.5 82q200 0 343 -94t217.5 -262t74.5 -386q0 -250 -87 -435t-237.5 -282.5t-338.5 -97.5q-206 0 -353 90.5t-224 256t-79 386.5h-317v-582l173 -24v-109h-573zM1072 746 q0 -189 48 -335t141.5 -228t223.5 -82q190 0 292 169.5t102 508.5q0 190 -46 335t-134.5 225.5t-212.5 80.5t-216.5 -72t-145 -222.5t-52.5 -379.5z" />
<glyph unicode="&#x42f;" horiz-adv-x="1440" d="M2 0v108l78 25q32 7 66 61t91 167q47 93 80 152.5t74 111t84 74.5q-90 27 -156 86.5t-101.5 143.5t-35.5 183q0 168 68.5 261t191 128.5t306.5 35.5q54 0 150 -8q13 -1 57.5 -4t87.5 -3h303v-111l-172 -26v-1253l190 -24v-108h-613l-1 108l192 24v534l-275 -1 q-48 -37 -95 -127.5t-111 -243.5q-61 -147 -101 -220.5t-74 -73.5h-284zM429 1123q0 -167 86.5 -253.5t244.5 -86.5q137 0 182 9v613q-10 1 -47 5q-44 5 -75.5 7.5t-84.5 2.5q-157 0 -231.5 -69.5t-74.5 -227.5z" />
<glyph unicode="&#x430;" horiz-adv-x="1148" d="M85 302q0 133 92.5 219t243 126.5t334.5 43.5v52q0 94 -19.5 148t-67.5 79t-136 25q-169 0 -356 -95h-1l-50 104q27 24 103.5 62t174 66.5t185.5 28.5q146 0 229.5 -39.5t120.5 -126.5t37 -235v-650h122v-98q-146 -35 -220 -35q-42 0 -64 7t-32.5 28.5t-10.5 66.5v48 q-54 -53 -142 -101.5t-197 -48.5q-96 0 -174.5 35t-125 108t-46.5 182zM334 331q0 -105 52 -154t140 -49q47 0 113.5 26.5t115.5 64.5v359q-147 0 -241.5 -33.5t-137 -88.5t-42.5 -125z" />
<glyph unicode="&#x431;" horiz-adv-x="1176" d="M55 791q0 169 44.5 311.5t126 247t189.5 164.5q64 41 162.5 69t203.5 43q61 8 89 19.5t38 43.5l24 76h118l-17 -110q-8 -72 -19.5 -110.5t-37 -60t-74.5 -27.5l-36 -4q-147 -16 -240 -30.5t-140 -37.5q-102 -40 -165.5 -128t-73.5 -263q30 35 93 74.5t148.5 67 t177.5 27.5q232 0 336.5 -153.5t104.5 -399.5q0 -191 -65.5 -332.5t-184 -217.5t-274.5 -76q-160 0 -278 85t-184 265.5t-66 456.5zM298 894q0 -306 33 -481t96.5 -246.5t164.5 -71.5q98 0 155.5 52.5t82.5 155.5t25 263q0 165 -26 261t-84.5 139t-160.5 43 q-71 0 -157 -34.5t-129 -80.5z" />
<glyph unicode="&#x432;" horiz-adv-x="1312" d="M104 0v109l143 26v866l-140 29v107h227q29 0 137 4q132 6 201 6q181 0 283 -32t141.5 -88.5t39.5 -139.5q0 -95 -59.5 -164t-166.5 -103q100 -8 172.5 -46.5t110 -97t37.5 -123.5q0 -176 -133 -269t-426 -93q-29 0 -214 5q-122 4 -145 4h-208zM468 129q20 -7 82.5 -12 t106.5 -5q119 0 189.5 22.5t101.5 68t31 119.5q0 114 -69 168t-216 54h-226v-415zM468 656h184q135 0 193 60t58 159q0 76 -55.5 115.5t-196.5 39.5q-132 0 -183 -1v-373z" />
<glyph unicode="&#x433;" horiz-adv-x="1042" d="M94 0v109l152 17v875l-148 29v107h889l10 -426h-138l-58 294l-329 19v-897l272 -18v-109h-650z" />
<glyph unicode="&#x434;" horiz-adv-x="1282" d="M18 -377q0 90 8 498h113q49 16 97 92.5t83 265t35 510.5v12l-188 29v107h1052v-107l-180 -29v-881h59l2 -3l117 3l-7 -154q-14 -320 -14 -343h-140q-3 48 -27.5 193.5t-40.5 183.5h-744q-21 -42 -46 -179t-31 -198h-148zM347 121l466 -1v892h-329v-120q0 -171 -19.5 -328 t-51 -273t-66.5 -170z" />
<glyph unicode="&#x435;" horiz-adv-x="1112" d="M85 571q0 176 69 312t191 210.5t277 74.5q192 0 297 -105t112 -303v-36q0 -105 -12 -160h-693q4 -147 50 -244t121 -143t169 -46q82 0 168.5 28.5t135.5 65.5l42 -96q-38 -39 -104.5 -74t-148 -56.5t-161.5 -21.5q-168 0 -283.5 74.5t-172.5 208t-57 311.5zM326 680h465 q4 36 4 86q-1 127 -53 204t-164 77t-177.5 -83.5t-74.5 -283.5z" />
<glyph unicode="&#x436;" horiz-adv-x="1911" d="M-6 1v108l82 24q31 9 66 53t92 132q78 118 138 192t130 110l-305 382l-149 28v107h479v-107l-147 -27l256 -358h209v357l-142 28v107h525l1 -107l-163 -29v-356h208l256 358l-146 27v107h479v-107l-148 -28l-307 -383q70 -36 130.5 -110t138.5 -193q61 -91 94 -133 t63 -50l83 -24v-109h-231q-41 0 -80.5 36.5t-74.5 90.5t-85 143q-51 90 -85 142.5t-72.5 88.5t-78.5 36l-144 1v-405l172 -24v-109h-543v109l150 23v406h-144q-40 0 -78.5 -36t-72.5 -88.5t-85 -142.5q-50 -89 -85 -143t-74.5 -90.5t-80.5 -36.5h-231z" />
<glyph unicode="&#x437;" horiz-adv-x="1104" d="M98 60l22 241h137l35 -140q25 -29 89 -44.5t133 -15.5q140 0 208 58t68 155q0 104 -58.5 162t-201.5 57q-20 -2 -56.5 -7t-56.5 -8l1 135l74 8q123 16 186 71t63 143q0 84 -49.5 126.5t-170.5 42.5q-87 0 -147.5 -22t-81.5 -48l-35 -169h-142v301q41 0 76.5 5.5 t92.5 17.5q72 15 131.5 23.5t139.5 8.5q208 0 318 -71t110 -202q0 -86 -66 -160t-177 -111q97 -9 167 -46t106 -96.5t36 -134.5q0 -110 -57 -190t-170 -123t-278 -43q-144 0 -258 23.5t-188 52.5z" />
<glyph unicode="&#x438;" horiz-adv-x="1518" d="M100 0v109l147 18v874l-144 30v106h529v-107l-160 -28v-664l113 149l462 464v51l-153 28v107h518v-107l-140 -28v-876l149 -18v-108h-531v108l157 19v658l-121 -159l-454 -454v-51l126 -11l-1 -110h-497z" />
<glyph unicode="&#x439;" horiz-adv-x="1518" d="M100 0v109l147 18v874l-144 30v106h529v-107l-160 -28v-664l113 149l462 464v51l-153 28v107h518v-107l-140 -28v-876l149 -18v-108h-531v108l157 19v658l-121 -159l-454 -454v-51l126 -11l-1 -110h-497zM366 1690q0 18 2 40h161q20 0 27 -23.5t7 -59.5 q0 -54 20.5 -101.5t64.5 -77.5t113 -30q99 0 144 61t45 148q0 83 34 83h163q2 -22 2 -40q0 -110 -44.5 -193t-132 -129t-212.5 -46q-123 0 -212 46.5t-135.5 130t-46.5 191.5z" />
<glyph unicode="&#x43a;" horiz-adv-x="1307" d="M100 0v109l146 18v875l-143 28v107h525v-107l-159 -28v-357h201l256 357l-146 28v107h479v-107l-148 -28l-307 -383q70 -36 130 -110t136 -192q58 -89 93 -132.5t65 -51.5l83 -24v-109h-230q-41 0 -80.5 36.5t-73.5 89.5t-86 144q-50 88 -84 141.5t-72.5 89.5t-78.5 36 l-137 1v-412l174 -17v-109h-543z" />
<glyph unicode="&#x43b;" horiz-adv-x="1278" d="M19 191q43 -10 139 -10q57 0 101 107t68.5 294t24.5 419l-187 29v107h1044v-111l-178 -31v-869l171 -17v-109h-551v109l154 18v884h-328v-112q0 -182 -17.5 -336.5t-45.5 -265t-59 -170.5q-22 -47 -47.5 -76t-68 -46.5t-110.5 -17.5q-47 0 -97 13z" />
<glyph unicode="&#x43c;" horiz-adv-x="1753" d="M14 0v109l158 17l98 875l-187 29v107h498l225 -603l69 -221l57 221l209 603h512v-107l-203 -29l130 -875l158 -17v-109h-553v109l162 18l-65 581l-39 322l-98 -319l-234 -652h-146l-257 652l-110 308l-28 -307l-43 -585l181 -18v-109h-494z" />
<glyph unicode="&#x43d;" horiz-adv-x="1497" d="M100 0v109l147 17v875l-146 29v107h534v-107l-163 -29v-348h553v349l-164 28v107h529v-107l-140 -29v-875l148 -17v-109h-542v109l169 18v401h-553v-402l169 -17v-109h-541z" />
<glyph unicode="&#x43e;" d="M79 573q0 183 76.5 318t201 206t264.5 71q174 0 290 -77t172 -211.5t56 -307.5q0 -185 -76.5 -320t-201 -205t-265.5 -70q-174 0 -289.5 77t-171.5 211.5t-56 307.5zM331 591q0 -225 67.5 -357.5t210.5 -132.5q277 0 277 453q0 225 -66.5 357.5t-210.5 132.5 q-138 0 -208 -113.5t-70 -339.5z" />
<glyph unicode="&#x43f;" horiz-adv-x="1433" d="M103 0v109l144 24v869l-143 28v107h1221v-107l-139 -28v-870l144 -23v-109h-519v109l151 23v884h-490v-883l151 -24v-109h-520z" />
<glyph unicode="&#x440;" horiz-adv-x="1294" d="M66 -388l149 23v1329l-143 40v120l295 40h5l45 -39v-114q60 66 148 111.5t199 45.5q122 0 223 -59.5t162 -185t61 -314.5q0 -175 -71.5 -319t-204 -228.5t-308.5 -84.5q-45 0 -99 7.5t-91 17.5l6 -170v-198l205 -22v-108h-581v108zM442 154q14 -25 68.5 -44t122.5 -19 q97 0 171.5 51.5t117.5 163t43 283.5q0 145 -38.5 240t-104.5 140.5t-151 45.5q-71 0 -132 -29t-97 -68v-764z" />
<glyph unicode="&#x441;" horiz-adv-x="1047" d="M77 554q0 171 66 310.5t196 221.5t314 82q144 0 308 -62l-10 -308h-139l-46 187q-14 33 -55.5 49t-99.5 16q-88 0 -153 -48.5t-101 -145t-36 -238.5q0 -165 43 -274t117 -161t167 -52q87 0 160.5 25.5t125.5 62.5l43 -92q-36 -37 -96 -71.5t-134.5 -56.5t-149.5 -22 q-169 0 -286 75t-175.5 205.5t-58.5 296.5z" />
<glyph unicode="&#x442;" horiz-adv-x="1278" d="M68 707l11 430h1117l12 -430h-144l-59 298l-253 19v-892l269 -23v-109h-761v109l266 24v891l-258 -19l-56 -298h-144z" />
<glyph unicode="&#x443;" horiz-adv-x="1180" d="M-3 1031v106h509v-106l-157 -26l193 -604l89 -290l80 291l181 604l-134 25v106h420v-106l-102 -25q-144 -448 -234.5 -715.5t-115.5 -324.5q-68 -172 -128.5 -272t-140 -152t-194.5 -52q-31 0 -67 4.5t-50 10.5v189q12 -7 49 -12.5t70 -5.5q60 0 110.5 24.5t102.5 95.5 t101 204h-113l-374 1005z" />
<glyph unicode="&#x444;" horiz-adv-x="1816" d="M85 542q0 177 68 319.5t191.5 224t284.5 81.5q46 0 92.5 -10.5t78.5 -26.5l-5 162v227l-164 21v96l339 43h2l49 -34v-353l-7 -220q100 95 273 95q118 0 218.5 -58.5t163 -185.5t62.5 -321q0 -177 -68 -319.5t-191.5 -224.5t-284.5 -82q-47 0 -92 10.5t-78 27.5l6 -150 v-226l173 -27v-109h-567v109l166 27v226l6 208q-103 -96 -272 -96q-117 0 -218 59t-163.5 186.5t-62.5 320.5zM331 567q0 -153 39 -252.5t104.5 -145t145.5 -45.5q53 0 101 15.5t74 37.5v809q-17 23 -61.5 45t-101.5 22q-84 0 -152 -51t-108.5 -159.5t-40.5 -275.5z M1021 159q17 -23 61.5 -45t102.5 -22q84 0 151.5 50.5t108 159t40.5 274.5q0 153 -39 253t-104.5 146t-145.5 46q-52 0 -100.5 -15.5t-74.5 -36.5v-810z" />
<glyph unicode="&#x445;" d="M14 0v106l137 19l347 443l-338 437l-118 26v106h530v-106l-138 -26l176 -246l59 -90l51 89l184 247l-147 26v106h441v-106l-125 -26l-329 -412l354 -469l117 -18v-106h-533v106l131 19l-243 356l-51 -89l-185 -266l165 -20v-106h-485z" />
<glyph unicode="&#x446;" horiz-adv-x="1433" d="M103 0v108l144 24v870l-141 28v107h524v-107l-158 -28v-875h485v875l-156 28v107h519v-107l-136 -28v-875h77l1 1h173q0 -13 -28 -255.5t-31 -249.5h-140q-3 59 -17 213t-19 164h-1097z" />
<glyph unicode="&#x447;" horiz-adv-x="1344" d="M21 1030v107h488v-107l-136 -28v-112q0 -157 19 -233t70 -104.5t158 -28.5q89 0 148.5 18t104.5 44v415l-149 29v107h509v-107l-136 -29v-869l144 -23v-109h-547v109l179 24v334q-84 -40 -150 -61.5t-152 -21.5q-140 0 -233.5 38.5t-144 131.5t-50.5 252v195z" />
<glyph unicode="&#x448;" horiz-adv-x="2036" d="M80 0v100l167 27v874l-161 29v107h551v-107l-166 -28v-880h434l2 879l-166 29v107h543v-107l-156 -29v-879h437v879l-167 29v107h547v-107l-157 -29v-875l169 -26v-100h-1877z" />
<glyph unicode="&#x449;" horiz-adv-x="2034" d="M80 0v100l167 27v874l-161 29v107h551v-107l-166 -28v-880h434l2 879l-166 29v107h543v-107l-156 -29v-879h437v879l-167 29v107h547v-107l-157 -29v-873h221q0 -12 -28 -255t-30 -252h-140q-3 54 -17 211t-19 168h-1695z" />
<glyph unicode="&#x44a;" horiz-adv-x="1449" d="M70 1137h844v-110l-164 -26v-315l229 1q222 0 329.5 -88.5t107.5 -257.5q0 -188 -118.5 -275.5t-344.5 -87.5q-45 0 -170 11q-21 1 -87.5 6t-98.5 5h-320v109l248 18v896l-271 -3l-43 -343h-136zM750 119l20 -4q100 -18 154 -18q126 0 189 54t63 171q0 126 -65 182.5 t-196 56.5h-165v-442z" />
<glyph unicode="&#x44b;" horiz-adv-x="1799" d="M75 0v100l172 26v876l-163 26v109h582v-112l-195 -23v-315h221q437 0 437 -344q0 -180 -118 -272.5t-336 -92.5q-48 0 -175 11q-23 2 -86.5 6.5t-93.5 4.5h-245zM471 112q41 -7 76.5 -11t97.5 -4q123 0 184 55.5t61 172.5q0 125 -65 181t-197 56h-157v-450zM1181 1028 v109h509v-109l-138 -25v-871l150 -23v-109h-512v109l139 24v868z" />
<glyph unicode="&#x44c;" horiz-adv-x="1166" d="M75 0v100l172 26v876l-163 26v109h582v-109l-195 -26v-315h221q437 0 437 -344q0 -180 -118 -272.5t-336 -92.5q-49 0 -177 11q-24 2 -87 6.5t-92 4.5h-244zM471 112q41 -7 76.5 -11t97.5 -4q123 0 184 55.5t61 172.5q0 125 -65 181t-197 56h-157v-450z" />
<glyph unicode="&#x44d;" horiz-adv-x="1081" d="M80 297h123l39 -156q94 -41 201 -41q136 0 222 98t96 320l-471 -9v152l48 -1q17 0 127 -3.5t294 -7.5q-9 131 -51.5 222.5t-110 137t-150.5 45.5q-66 0 -110 -15.5t-75 -43.5l-44 -140h-126l-2 263q45 21 154 37t208 16q163 0 289.5 -69.5t198 -204.5t71.5 -327 q0 -180 -70.5 -314.5t-192.5 -206.5t-274 -72q-128 0 -228.5 32t-163.5 84z" />
<glyph unicode="&#x44e;" horiz-adv-x="1873" d="M98 0v109l149 23v870l-146 28v107h536v-107l-163 -29v-350h271q16 160 94 277.5t194.5 178.5t246.5 61q175 0 290.5 -76.5t171 -210t55.5 -306.5q0 -185 -76 -320.5t-200.5 -206.5t-264.5 -71q-166 0 -278.5 69.5t-170 192t-65.5 284.5h-268v-391l172 -23v-109h-548z M991 592q0 -227 67 -360t210 -133q138 0 209 116t71 345q0 225 -67.5 355.5t-211.5 130.5q-278 0 -278 -454z" />
<glyph unicode="&#x44f;" horiz-adv-x="1331" d="M50 0v109l105 28q35 8 65 51.5t73 127.5q36 67 57.5 103.5t47.5 64.5q-125 35 -187 122t-62 211q0 162 134 245.5t374 83.5q52 0 220 -5q104 -4 131 -4h214v-109l-137 -26v-870l149 -23v-109h-543v109l169 23v329l-262 1q-45 -40 -81.5 -114.5t-80.5 -187.5 q-32 -84 -51 -122t-36 -38h-299zM393 834q0 -118 69 -187t218 -69h54q107 0 126 4v444q-37 4 -194 4q-127 0 -200 -42t-73 -154z" />
<glyph unicode="&#x450;" horiz-adv-x="1112" d="M85 571q0 176 69 312t191 210.5t277 74.5q192 0 297 -105t112 -303v-36q0 -105 -12 -160h-693q4 -147 50 -244t121 -143t169 -46q82 0 168.5 28.5t135.5 65.5l42 -96q-38 -39 -104.5 -74t-148 -56.5t-161.5 -21.5q-168 0 -283.5 74.5t-172.5 208t-57 311.5zM233 1675 l159 139h1l330 -406l-82 -74h-1q-44 16 -131.5 81t-168.5 140t-107 120zM326 680h465q4 36 4 86q-1 127 -53 204t-164 77t-177.5 -83.5t-74.5 -283.5z" />
<glyph unicode="&#x451;" horiz-adv-x="1112" d="M85 571q0 176 69 312t191 210.5t277 74.5q192 0 297 -105t112 -303v-36q0 -105 -12 -160h-693q4 -147 50 -244t121 -143t169 -46q82 0 168.5 28.5t135.5 65.5l42 -96q-38 -39 -104.5 -74t-148 -56.5t-161.5 -21.5q-168 0 -283.5 74.5t-172.5 208t-57 311.5zM220 1492 q0 67 38 113.5t109 46.5h1q61 0 96.5 -41t35.5 -97q0 -70 -39.5 -114.5t-113.5 -44.5h-1q-57 0 -91.5 39t-34.5 98zM326 680h465q4 36 4 86q-1 127 -53 204t-164 77t-177.5 -83.5t-74.5 -283.5zM688 1492q0 67 38.5 113.5t108.5 46.5h1q62 0 97.5 -41t35.5 -97 q0 -70 -39.5 -114.5t-115.5 -44.5h-1q-55 0 -90 40t-35 97z" />
<glyph unicode="&#x452;" horiz-adv-x="1341" d="M20 1243v114h189v177l-165 20v97l341 43h4l47 -34v-303h236v-114h-236l1 -147l-10 -176q41 36 108 71.5t145 58.5t149 23q128 0 199 -46t100.5 -145t29.5 -270v-590q0 -253 -93.5 -388t-267.5 -144q-19 -1 -60.5 1t-48.5 7l-10 108q15 -2 49.5 4.5t58.5 15.5 q81 28 111.5 136.5t30.5 283.5v566q0 115 -15.5 179t-59 95.5t-128.5 31.5q-71 0 -148 -30.5t-140 -77.5v-684l141 -18v-108h-490v109l121 17v1117h-189z" />
<glyph unicode="&#x453;" horiz-adv-x="1036" d="M96 0v109l152 17v875l-148 29v107h889l10 -426h-138l-58 294l-329 19v-897l272 -18v-109h-650zM392 1408l330 406h1l159 -139q-26 -44 -106 -118.5t-168 -139.5t-133 -83h-2z" />
<glyph unicode="&#x454;" horiz-adv-x="1078" d="M70 584q0 170 78 304t211 209t293 75q96 0 195.5 -16t146.5 -37l-2 -264h-129l-46 143q-31 28 -74 43t-107 15q-133 0 -217.5 -98t-98.5 -304q146 1 470 10v-152q-42 0 -97.5 2t-110.5 3l-262 6q8 -143 51.5 -237.5t112.5 -139.5t156 -45q109 0 198 36l40 160h123 l-2 -204q-63 -52 -163.5 -84t-228.5 -32q-179 0 -299 74.5t-179 210.5t-59 322z" />
<glyph unicode="&#x455;" horiz-adv-x="1043" d="M119 63v262h141l40 -152q12 -21 46.5 -40t81.5 -31t96 -12q113 0 161 42.5t48 116.5q0 52 -32.5 91.5t-96.5 74.5t-174 79q-159 62 -232 146.5t-73 218.5q0 90 54.5 158.5t149.5 106.5t214 38q92 0 162 -14.5t141 -37.5l36 -11v-253h-128l-43 140q-12 26 -64.5 45 t-117.5 19q-92 0 -142 -39t-50 -102q0 -56 29.5 -94t73.5 -62t123 -57l39 -17q114 -49 185 -92t118 -110t47 -164q0 -100 -52.5 -176t-152 -118t-235.5 -42q-102 0 -214 28t-179 58z" />
<glyph unicode="&#x456;" horiz-adv-x="685" d="M78 0v109l162 17v838l-145 41v118l318 41h5l51 -39v-999l160 -17v-109h-551zM199 1489q0 68 39.5 115t110.5 47h1q42 0 73 -19.5t47.5 -51.5t16.5 -68q0 -70 -40 -115t-116 -45h-1q-58 0 -94.5 39t-36.5 98z" />
<glyph unicode="&#x457;" horiz-adv-x="694" d="M-35 1492q0 67 38 113.5t109 46.5h1q61 0 96.5 -41t35.5 -97q0 -70 -39.5 -114.5t-113.5 -44.5h-1q-57 0 -91.5 39t-34.5 98zM79 0v109l162 17v838l-145 41v118l318 41h5l51 -39v-999l160 -17v-109h-551zM433 1492q0 67 38.5 113.5t108.5 46.5h1q62 0 97.5 -41t35.5 -97 q0 -70 -39.5 -114.5t-115.5 -44.5h-1q-55 0 -90 40t-35 97z" />
<glyph unicode="&#x458;" horiz-adv-x="656" d="M-16 -382q15 -2 47.5 4t61.5 17q81 30 113 138t32 283l-2 897l-146 41l2 125l317 41h5l50 -39v-1107q0 -162 -48 -274.5t-127.5 -171.5t-175.5 -70q-5 -1 -23 -1q-27 0 -57 2.5t-38 6.5zM194 1489q0 68 39.5 115t110.5 47h1q42 0 73 -19.5t47.5 -51.5t16.5 -68 q0 -70 -40 -115t-116 -45h-1q-58 0 -94.5 39t-36.5 98z" />
<glyph unicode="&#x459;" horiz-adv-x="1723" d="M19 191q43 -10 139 -10q57 0 101 107t68.5 294t24.5 419l-187 29v107h1044v-111l-178 -31v-332q32 8 97 15.5t126 7.5q223 0 330 -87t107 -256q0 -184 -104.5 -274.5t-318.5 -90.5q-45 0 -175 11q-130 10 -173 11h-269v109l154 18v884h-328v-112q0 -182 -17.5 -337 t-45.5 -265t-59 -170q-22 -47 -47.5 -76t-68 -46.5t-110.5 -17.5q-47 0 -97 13zM1031 114q5 -1 31.5 -5.5t64 -7.5t82.5 -3q123 0 183.5 55t60.5 173q0 128 -65.5 181t-198.5 53q-44 0 -86.5 -6t-71.5 -14v-426z" />
<glyph unicode="&#x45a;" horiz-adv-x="1943" d="M100 0v109l147 17v875l-146 29v107h534v-107l-164 -29v-351h556v352l-165 28v107h528v-107l-140 -29v-340q31 9 96 16.5t128 7.5q225 0 330 -87t105 -258q0 -180 -116 -271t-334 -91q-45 0 -175 11q-21 1 -87.5 6t-97.5 5h-242v108l170 17v403h-556v-402l170 -17v-109 h-541zM1250 113l1 1q38 -8 75 -12t104 -4q122 0 182 54t60 171q0 129 -65.5 182.5t-198.5 53.5q-43 0 -85 -6.5t-73 -14.5v-425z" />
<glyph unicode="&#x45b;" horiz-adv-x="1368" d="M42 1541v95l339 43h5l48 -34v-294h253v-114h-253l1 -150l-9 -178q68 60 178 110.5t226 50.5q128 0 199.5 -49t100 -150.5t28.5 -272.5v-472l144 -17v-109h-503v108l131 17v474q0 116 -15.5 182.5t-59 100t-129.5 33.5q-72 0 -150.5 -29.5t-139.5 -75.5v-684l142 -17v-109 h-491v109l120 16v1112h-157v114h157v170z" />
<glyph unicode="&#x45c;" horiz-adv-x="1306" d="M100 0v109l146 18v875l-143 28v107h525v-107l-159 -28v-357h201l256 357l-146 28v107h479v-107l-148 -28l-307 -383q70 -36 130 -110t136 -192q58 -89 93 -132.5t65 -51.5l83 -24v-109h-230q-41 0 -80.5 36.5t-73.5 89.5t-86 144q-50 88 -84 141.5t-72.5 89.5t-78.5 36 l-137 1v-412l174 -17v-109h-543zM506 1408l330 406h1l159 -139q-26 -44 -106 -118.5t-168 -139.5t-133 -83h-2z" />
<glyph unicode="&#x45d;" horiz-adv-x="1518" d="M100 0v109l147 18v874l-144 30v106h529v-107l-160 -28v-664l113 149l462 464v51l-153 28v107h518v-107l-140 -28v-876l149 -18v-108h-531v108l157 19v658l-121 -159l-454 -454v-51l126 -11l-1 -110h-497zM417 1675l159 139h1l330 -406l-82 -74h-1q-44 16 -131.5 81 t-168.5 140t-107 120z" />
<glyph unicode="&#x45e;" horiz-adv-x="1181" d="M-3 1031v106h509v-106l-157 -26l193 -604l89 -290l80 291l181 604l-134 25v106h420v-106l-102 -25q-144 -448 -234.5 -715.5t-115.5 -324.5q-68 -172 -128.5 -272t-140 -152t-194.5 -52q-31 0 -67 4.5t-50 10.5v189q12 -7 49 -12.5t70 -5.5q60 0 110.5 24.5t102.5 95.5 t101 204h-113l-374 1005zM208 1690q0 18 2 40h161q20 0 27 -23.5t7 -59.5q0 -54 20.5 -101.5t64.5 -77.5t113 -30q99 0 144 61t45 148q0 83 34 83h163q2 -22 2 -40q0 -110 -44.5 -193t-132 -129t-212.5 -46q-123 0 -212 46.5t-135.5 130t-46.5 191.5z" />
<glyph unicode="&#x45f;" horiz-adv-x="1423" d="M105 0v108l142 24v869l-141 29v107h518v-107l-153 -28v-882h481v882l-152 28v107h511v-107l-136 -29v-869l144 -24v-108h-488q-4 -5 -18.5 -172t-14.5 -196h-142q0 24 -24 192.5t-27 175.5h-500z" />
<glyph unicode="&#x462;" horiz-adv-x="1530" d="M-19 1041l27 292h468v189l-169 30v99h581l-1 -99l-178 -30v-189h497l25 -292h-146l-49 154l-326 27h-1v-402q42 9 112.5 17t139.5 8q176 0 291 -57t168.5 -151t53.5 -209q0 -134 -68.5 -234.5t-191.5 -155t-283 -54.5q-15 0 -127 6q-144 10 -203 10h-305v109l180 22v1091 l-298 -27l-52 -154h-145zM709 118q34 -9 73.5 -13.5t109.5 -4.5q106 0 183 40t117 110t40 160q0 86 -41 157t-117 112t-177 41q-128 0 -188 -12v-590z" />
<glyph unicode="&#x463;" horiz-adv-x="1426" d="M69 914l10 339h431v267l-162 18v98l335 43h2l49 -34v-392h447l10 -339h-140l-60 233h-257v-421l1 1q32 8 103.5 16t135.5 8q215 0 317 -102t102 -275q0 -187 -106 -291.5t-315 -104.5q-45 0 -170 11q-22 2 -88.5 6.5t-99.5 4.5h-271v96l167 29v1022h-244l-59 -233h-138z M734 113q7 -1 34 -5.5t64 -7.5t81 -3q116 0 178.5 70t62.5 191q0 129 -60.5 198.5t-183.5 69.5q-44 0 -94.5 -6.5t-80.5 -13.5l-1 1v-494z" />
<glyph unicode="&#x472;" horiz-adv-x="1480" d="M66 750q0 236 90 415t247.5 276.5t354.5 97.5q214 0 361 -93.5t220.5 -264.5t73.5 -404q0 -239 -90.5 -420.5t-250 -280.5t-359.5 -99q-208 0 -353.5 96.5t-219.5 271t-74 405.5zM326 797q45 52 104 84t131 32q54 0 105 -18t123 -53q59 -28 94 -41t68 -13q39 0 76 17.5 t62.5 38t59.5 52.5q-14 164 -66 282.5t-139 181t-203 62.5q-123 0 -214.5 -68.5t-143.5 -208.5t-57 -348zM329 658q11 -174 62.5 -300.5t140 -194.5t208.5 -68q125 0 217.5 74.5t143.5 223.5t53 367q-47 -53 -107.5 -86t-133.5 -33q-56 0 -108.5 18.5t-125.5 53.5 q-55 27 -90.5 40t-65.5 13q-40 0 -76 -17.5t-59 -37t-59 -53.5z" />
<glyph unicode="&#x473;" d="M79 573q0 183 76.5 318t201 206t264.5 71q174 0 290 -77t172 -211.5t56 -307.5q0 -185 -76.5 -320t-201 -205t-265.5 -70q-174 0 -289.5 77t-171.5 211.5t-56 307.5zM332 527q10 -198 77.5 -312t199.5 -114q243 0 273 350q-44 -21 -96 -21q-56 0 -101 16t-106 48 q-52 28 -87 41t-74 13q-52 0 -86 -21zM332 642q66 46 143 46q57 0 102.5 -16.5t102.5 -47.5q48 -25 79 -37t65 -12q38 0 62 10q-5 212 -72 335.5t-205 123.5q-262 0 -277 -402z" />
<glyph unicode="&#x474;" horiz-adv-x="1371" d="M-35 1411v111h557v-111l-180 -25l317 -938l69 -248l60 248l259 824q31 136 108.5 195.5t174.5 59.5q73 0 108 -15v-139h-12q-86 0 -151 -51.5t-102 -194.5l-388 -1142h-188l-506 1400z" />
<glyph unicode="&#x475;" horiz-adv-x="1153" d="M-2 1033v104h494v-104l-148 -28l190 -564l91 -276l81 277l151 462q74 237 241 237q73 0 103 -13v-128q-36 0 -71 -16q-37 -18 -70.5 -67.5t-67.5 -145.5l-303 -787h-197l-400 1022z" />
<glyph unicode="&#x48a;" horiz-adv-x="1724" d="M98 0v109l168 25v1251l-161 26v111h578v-110l-187 -26v-998l137 210l598 735v53l-170 25v111h562v-111l-161 -26v-1250h207v-135q-6 -11 -75 -185q-10 -26 -42.5 -107t-37.5 -87h-147q10 25 48.5 171t45.5 171l10 37h-414v109l174 24v1010l-125 -199l-610 -740v-70 l180 -25v-109h-578zM471 1969l2 44h170q34 0 34 -84q0 -79 43.5 -122t144.5 -43t144.5 43t43.5 122q0 84 34 84h170l2 -44q0 -308 -395 -308q-191 0 -292 76.5t-101 231.5z" />
<glyph unicode="&#x48b;" horiz-adv-x="1518" d="M100 0v109l147 18v874l-144 30v106h529v-107l-160 -28v-664l113 149l462 464v51l-153 28v107h518v-107l-140 -28v-876h190v-126q-10 -21 -63 -168q-72 -200 -79 -209h-149q7 17 63 251l30 126h-374v108l157 19v658l-121 -159l-454 -454v-51l126 -11l-1 -110h-497z M360 1690q0 18 2 40h161q20 0 27 -23.5t7 -59.5q0 -54 20.5 -101.5t64.5 -77.5t113 -30q99 0 144 61t45 148q0 83 34 83h163q2 -22 2 -40q0 -110 -44.5 -193t-132 -129t-212.5 -46q-123 0 -212 46.5t-135.5 130t-46.5 191.5z" />
<glyph unicode="&#x48c;" horiz-adv-x="1329" d="M68 1101v115h198v174l-164 30v102h590v-102l-193 -30v-174h246v-115h-246v-178h256q166 0 282.5 -53t176.5 -153t60 -240q0 -157 -69.5 -268t-192.5 -168t-283 -57q-35 0 -137 7q-162 9 -209 9l1 1l-2 -1h-285v109l169 22v970h-198zM499 120q40 -10 80 -14.5t111 -4.5 q164 0 250 93t86 267q0 167 -87.5 250t-247.5 83h-192v-674z" />
<glyph unicode="&#x48d;" horiz-adv-x="1131" d="M23 1019v119h184v381l-166 21v96l337 43h3l51 -34v-507h236v-119h-236v-317q32 8 96 15t128 7q220 0 331.5 -95t111.5 -261q0 -119 -49 -206.5t-146.5 -135.5t-237.5 -48q-45 0 -170 11q-20 1 -86 6t-98 5h-258v100l153 25v894h-184zM432 113q6 -1 32 -5.5t63 -7.5t81 -3 q125 0 188.5 67.5t63.5 185.5q0 126 -64 187.5t-204 61.5q-46 0 -89.5 -5.5t-70.5 -12.5v-468z" />
<glyph unicode="&#x48e;" horiz-adv-x="1328" d="M98 0v109l168 23v1253l-157 26v111h247q54 0 146 6q108 8 207 8q212 0 337 -50.5t178 -146.5t53 -241q0 -155 -66.5 -270t-186.5 -183l175 -211l-90 -64l-191 229q-108 -35 -235 -35q-54 0 -111 3t-71 6v-441l270 -23v-109h-673zM500 691q48 -9 183 -9q83 0 145 26 l-149 180l91 64l151 -183q104 106 104 327q0 173 -84 249t-262 76q-61 0 -123 -8q-33 -5 -56 -5v-717z" />
<glyph unicode="&#x48f;" horiz-adv-x="1295" d="M66 -388l149 23v1329l-143 40v120l295 40h5l45 -39v-114q60 66 148 111.5t199 45.5q122 0 223 -59.5t162 -185t61 -314.5q0 -139 -46 -260.5t-132 -208.5l169 -187l-86 -79l-173 192q-136 -89 -316 -89q-45 0 -99 7.5t-91 17.5l6 -170v-198l205 -22v-108h-581v108z M442 154q14 -25 68.5 -44t122.5 -19q128 0 210 85l-168 187l85 78l149 -166q56 123 56 314q0 145 -38.5 240t-104.5 140.5t-151 45.5q-71 0 -132 -29t-97 -68v-764z" />
<glyph unicode="&#x490;" horiz-adv-x="1134" d="M45 0h802v108l-340 26v1270l585 -12l20 489h-149l-65 -359h-848v-108l219 -30v-1249l-224 -27v-108z" />
<glyph unicode="&#x491;" horiz-adv-x="999" d="M102 0h649v109l-273 23v883l477 -3l-10 450h-137l-38 -325h-664v-109l148 -26v-869l-152 -24v-109z" />
<glyph unicode="&#x492;" horiz-adv-x="1174" d="M50 0v108l225 27v533h-193v120h193v596l-218 30v108h1070l15 -542h-149l-62 410l-418 14v-616h351v-120h-351v-534l341 -26v-108h-804z" />
<glyph unicode="&#x493;" horiz-adv-x="1036" d="M65 418v119h189v464l-148 29v107h889l10 -426h-138l-58 294l-329 19v-487h240v-119h-240v-291l272 -18v-109h-650v109l152 17v292h-189z" />
<glyph unicode="&#x494;" horiz-adv-x="1414" d="M44 0v109l225 25v1250l-218 30v108h1075l13 -414h-149l-61 280l-422 17v-608q56 32 161.5 55t171.5 23q177 0 278 -62.5t141 -176t40 -283.5q0 -222 -54.5 -394.5t-162 -270t-261.5 -97.5q-34 0 -73 5.5t-59 13.5l-5 123q40 -6 103 -6q100 0 160.5 67t88 199t27.5 336 q0 141 -27 229.5t-88 132t-164 43.5q-82 0 -142 -12.5t-135 -41.5v-547l290 -24v-109h-753z" />
<glyph unicode="&#x495;" horiz-adv-x="1247" d="M102 0v109l152 17v876l-150 26v109h885l10 -410h-136l-57 278l-328 19v-505q40 26 112.5 45t137.5 19q172 0 270.5 -49t138.5 -143t40 -241q0 -314 -117.5 -483t-348.5 -169q-33 0 -72.5 6t-58.5 14l-5 121q27 -7 101 -7q102 0 162.5 51.5t87 160t26.5 287.5 q0 117 -27 186t-85.5 99.5t-157.5 30.5q-52 0 -108 -13.5t-96 -34.5v-273l207 -17v-109h-583z" />
<glyph unicode="&#x496;" horiz-adv-x="2138" d="M14 0v109l81 24q31 10 74 69t121 181q71 112 123 186.5t110 137t111 86.5l-429 593l-160 25v111h503v-111l-153 -26l388 -579h170v579l-166 26v111h558v-111l-167 -25v-580h170l387 578l-152 27v111h505v-111l-161 -25l-430 -593q54 -24 112 -86.5t108.5 -136 t123.5 -187.5q78 -122 121 -181t75 -69h112q0 -26 -27.5 -261.5t-30.5 -247.5h-143q0 53 -11.5 202.5t-19.5 173.5h-66q-34 0 -76 45t-84 112t-104 177q-69 121 -114.5 192.5t-92.5 121.5t-88 50h-114v-565l172 -27v-106h-566v109l169 25v564h-114q-41 0 -88.5 -50 t-93.5 -123.5t-113 -191.5q-66 -115 -106 -179.5t-81.5 -109t-75.5 -44.5h-267z" />
<glyph unicode="&#x497;" horiz-adv-x="1917" d="M-6 1v108l82 24q31 9 66 53t92 132q78 118 138 192t130 110l-305 382l-149 28v107h479v-107l-147 -27l256 -358h209v357l-142 28v107h525l1 -107l-163 -29v-356h208l256 358l-146 27v107h479v-107l-148 -28l-307 -383q70 -36 130.5 -110t138.5 -193q61 -91 94 -133 t63 -50h116q0 -23 -26.5 -260t-29.5 -252h-144q-1 76 -9.5 214.5t-18.5 164.5h-36q-41 0 -80.5 36.5t-74.5 90.5t-85 143q-51 90 -85 142.5t-72.5 88.5t-78.5 36l-144 1v-405l172 -24v-109h-543v109l150 23v406h-144q-40 0 -78.5 -36t-72.5 -88.5t-85 -142.5 q-50 -89 -85 -143t-74.5 -90.5t-80.5 -36.5h-231z" />
<glyph unicode="&#x498;" horiz-adv-x="1239" d="M92 69l43 352h103l67 -257q94 -53 268 -53q140 0 218.5 81.5t78.5 238.5q0 131 -68 212.5t-251 81.5h-145v124h120q81 0 155.5 34t121.5 104.5t47 174.5q0 132 -75.5 195t-200.5 63q-90 0 -146 -23t-76 -62l-44 -176h-139l-21 313q41 2 135 25q96 20 156.5 30.5 t122.5 10.5q258 0 399 -86t141 -259q0 -111 -51.5 -192t-132 -128.5t-171.5 -66.5q133 -3 223 -52.5t133.5 -129.5t43.5 -176q0 -190 -115 -308t-362 -145q43 -44 83 -120t40 -155q0 -116 -66 -165t-198 -49h-1q-35 0 -76.5 7.5t-67.5 19.5l1 153q19 -7 45 -10.5t41 -3.5h1 q52 0 81.5 9.5t45 40t15.5 91.5q0 43 -16.5 91.5t-36.5 83.5h-33q-134 0 -239 24t-197 57z" />
<glyph unicode="&#x499;" horiz-adv-x="1104" d="M98 60l22 241h137l35 -140q25 -29 89 -44.5t133 -15.5q140 0 208 58t68 155q0 104 -58.5 162t-201.5 57q-20 -2 -56.5 -7t-56.5 -8l1 135l74 8q123 16 186 71t63 143q0 84 -49.5 126.5t-170.5 42.5q-87 0 -147.5 -22t-81.5 -48l-35 -169h-142v301q41 0 76.5 5.5 t92.5 17.5q72 15 131.5 23.5t139.5 8.5q208 0 318 -71t110 -202q0 -86 -66 -160t-177 -111q97 -9 167 -46t106 -96.5t36 -134.5q0 -153 -107.5 -245t-315.5 -108q45 -50 82 -126.5t33 -154.5q-5 -108 -70.5 -154t-193.5 -46h-1q-35 0 -76.5 7.5t-67.5 19.5l1 153 q19 -7 45 -10.5t41 -3.5h1q52 0 81.5 9.5t45 40t15.5 91.5q0 42 -15.5 88.5t-35.5 82.5q-133 3 -239.5 26t-173.5 50z" />
<glyph unicode="&#x49a;" horiz-adv-x="1453" d="M102 0v109l163 25v1251l-163 26v111h553v-111l-161 -26v-579h168l396 578l-162 27v111h508v-111l-161 -25l-431 -592q53 -22 110.5 -84.5t109.5 -137t123 -187.5q76 -121 120.5 -181.5t76.5 -70.5h134q0 -19 -23.5 -224.5t-33.5 -285.5h-143q-4 62 -16 209.5t-17 167.5 h-88q-34 0 -75 45t-81.5 110.5t-104.5 177.5q-68 120 -113.5 192.5t-93 122.5t-88.5 50h-115v-565l171 -27v-106h-563z" />
<glyph unicode="&#x49b;" horiz-adv-x="1310" d="M100 0v109l146 18v875l-143 28v107h525v-107l-159 -28v-357h201l256 357l-146 28v107h479v-107l-148 -28l-307 -383q70 -36 130 -110t136 -192q58 -89 93 -132.5t65 -51.5h135q0 -20 -27.5 -260.5t-30.5 -249.5h-143q-2 45 -15.5 203t-18.5 174h-47q-41 0 -80.5 36.5 t-73.5 89.5t-86 144q-50 88 -84 141.5t-72.5 89.5t-78.5 36l-137 1v-412l174 -17v-109h-543z" />
<glyph unicode="&#x49c;" horiz-adv-x="1541" d="M102 0v109l163 25v1251l-163 26v111h554v-111l-162 -26v-568h161v318h120v-318h87l293 566l-173 28v111h510v-111l-150 -24l-333 -587q48 -26 97 -88t90.5 -133.5t102.5 -184.5q68 -128 107.5 -189.5t70.5 -71.5l81 -24v-110l-257 1q-37 0 -76.5 46.5t-75.5 114.5 t-91 183q-58 120 -95 189.5t-79 118t-82 48.5h-27v-329h-120v329h-161v-567l172 -27v-106h-564z" />
<glyph unicode="&#x49d;" horiz-adv-x="1387" d="M100 0v108l147 17v880l-144 26v106h536v-106l-169 -26v-360h113v235h125v-235h44l257 361l-147 25v106h481v-106l-148 -25l-311 -389q66 -36 122 -107t132 -189q60 -94 97 -140.5t71 -53.5l92 -26v-101h-239q-40 0 -79 36t-73.5 90t-82.5 141q-49 85 -78.5 132.5t-65 86 t-72.5 49.5v-263h-125v267h-113v-414l175 -17v-108h-545z" />
<glyph unicode="&#x49e;" horiz-adv-x="1445" d="M102 0v109l163 25v932h-161v114h161v205l-163 26v111h553v-111l-161 -26v-205h167v-114h-167v-260h168l396 578l-162 27v111h508v-111l-161 -25l-431 -592q53 -22 110.5 -84.5t109.5 -137t123 -187.5q76 -121 120.5 -181.5t76.5 -70.5l80 -24v-109h-267q-34 0 -75 45 t-81.5 110.5t-104.5 177.5q-68 120 -113.5 192.5t-93 122.5t-88.5 50h-115v-565l171 -27v-106h-563z" />
<glyph unicode="&#x49f;" horiz-adv-x="1301" d="M23 1288v115h185v118l-156 20v95l333 43h3l48 -34v-242h234v-115h-234v-633l-4 -114l446 465l-161 29v102h509v-102l-157 -34l-291 -284l392 -591l120 -17v-109h-501v108l120 19l-282 457l-196 -194l5 -106v-158l144 -18v-108h-503v109l131 17v1162h-185z" />
<glyph unicode="&#x4a0;" horiz-adv-x="1754" d="M74 1007l23 515h893v-111l-169 -26v-570h176l387 569l-162 27v111h509v-111l-160 -25l-426 -589q51 -26 107 -88.5t105 -134t122 -185.5q82 -128 126 -187t75 -69l84 -24v-109h-264q-35 0 -77 45.5t-84 112t-107 178.5q-69 119 -115.5 192t-94.5 123t-89 50h-112v-568 l173 -27v-106h-571v109l169 24v1269l-298 -12l-65 -383h-155z" />
<glyph unicode="&#x4a1;" horiz-adv-x="1596" d="M68 710l10 427h836v-107l-161 -28v-357h201l253 357l-143 28v107h479v-106l-151 -29l-305 -384q68 -36 125.5 -108.5t134.5 -189.5q58 -90 93.5 -134.5t67.5 -52.5l87 -25v-108h-236q-41 0 -80 36.5t-72 89.5t-84 144q-48 88 -81.5 141.5t-71.5 89.5t-78 36h-139v-411 l176 -17v-109h-545v109l147 17v898l-267 -19l-56 -295h-140z" />
<glyph unicode="&#x4a2;" horiz-adv-x="1701" d="M100 0v109l165 24v1252l-159 26v111h566v-111l-172 -25v-540h700v540l-164 25v111h559v-111l-160 -25v-1253h204q0 -21 -28 -262t-31 -248h-142q-2 50 -15 204t-19 173h-367v109l163 23v582h-700v-581l172 -24v-109h-572z" />
<glyph unicode="&#x4a3;" horiz-adv-x="1497" d="M100 0v109l147 17v875l-146 29v107h534v-107l-163 -29v-348h553v349l-164 28v107h529v-107l-140 -29v-868h184q0 -23 -27 -261t-30 -249h-140q-2 66 -14 210t-21 167h-346v109l169 18v401h-553v-402l169 -17v-109h-541z" />
<glyph unicode="&#x4a4;" horiz-adv-x="2047" d="M97 0v109l169 25v1252l-162 25v111h572v-111l-177 -25v-540h703v539l-168 26v111h919l24 -515h-155l-66 379l-320 19v-1272l166 -24v-109h-566v109l166 24v581h-703v-581l177 -24v-109h-579z" />
<glyph unicode="&#x4a5;" horiz-adv-x="1750" d="M100 0v109l147 18v874l-146 29v107h534v-107l-163 -29v-348h553v348l-164 29v107h840l13 -442h-146l-61 318l-257 3v-890l148 -17v-109h-542v109l169 18v401h-553v-401l169 -18v-109h-541z" />
<glyph unicode="&#x4a6;" horiz-adv-x="2219" d="M92 1411v111h1438v-110l-174 -28v-579q55 27 151 48.5t169 21.5q177 0 277.5 -62.5t140.5 -176.5t40 -285q0 -221 -54.5 -393t-162.5 -269.5t-261 -97.5q-34 0 -73 5.5t-58 13.5l-6 126q37 -7 104 -7q99 0 159.5 66.5t88 198t27.5 335.5q0 141 -27 228.5t-88 131 t-164 43.5q-81 0 -137.5 -12t-125.5 -36v-551l192 -24v-109h-589v109l165 25v1257h-625v-1257l188 -25v-109h-587v109l166 25v1251z" />
<glyph unicode="&#x4a7;" horiz-adv-x="1936" d="M103 0v109l144 24v869l-143 28v107h1221v-107l-139 -28v-396q41 28 110 46t128 18q169 0 267 -50t138.5 -144t40.5 -239q0 -362 -116 -550.5t-348 -188.5q-33 0 -72.5 6t-58.5 14l-6 123q35 -7 101 -7q104 0 162.5 58t84 184t25.5 343q0 114 -27 183t-84 101t-150 32 q-49 0 -100 -13.5t-95 -35.5v-354l144 -23v-109h-519v109l151 23v884h-490v-883l151 -24v-109h-520z" />
<glyph unicode="&#x4a8;" horiz-adv-x="1512" d="M66 758q0 242 94.5 419t257.5 269.5t365 92.5q116 0 212.5 -16t199.5 -40l32 -8l-19 -331h-149l-55 214q-25 25 -82.5 44t-158.5 19q-126 0 -223 -70.5t-152 -211.5t-55 -346q0 -158 42 -301t127.5 -245.5t209.5 -138.5q-46 138 -46 294q0 161 52.5 292.5t151 207.5 t230.5 76q115 0 197.5 -45.5t125.5 -131t43 -202.5q0 -136 -56.5 -260t-165.5 -214.5t-258 -126.5q56 -101 137 -161t186 -60q26 0 54 4v-102q-63 -12 -111 -12q-159 0 -283 84t-200 227q-217 8 -376.5 113t-243 279.5t-83.5 387.5zM868 441q0 -66 17 -157.5t51 -179.5 q94 23 167 87t114 161t41 218q0 135 -40.5 210t-134.5 75q-65 0 -113.5 -53.5t-75 -147.5t-26.5 -213z" />
<glyph unicode="&#x4a9;" horiz-adv-x="1381" d="M77 577q0 171 73.5 306t202.5 210t291 75q148 0 221 -53l-43 -101q-24 16 -58.5 24t-97.5 8q-108 0 -187.5 -53.5t-122 -155.5t-42.5 -245q0 -133 50 -247t136 -182t187 -68q75 0 98 2q-96 70 -146.5 175.5t-50.5 235.5q0 121 46 210.5t130.5 138t196.5 48.5 q101 0 182 -49t127.5 -136t46.5 -197q0 -137 -48 -246t-143 -181q46 -4 74 -4q27 0 76 1t68 4l-6 -106q-17 -4 -63.5 -7.5t-78.5 -3.5q-127 0 -239 33q-117 -36 -262 -36q-188 0 -328 80t-215 216.5t-75 303.5zM796 501q0 -116 34.5 -208t126.5 -145q78 41 111.5 129.5 t33.5 256.5q0 75 -18.5 136t-53 96t-79.5 35q-83 0 -119 -84t-36 -216z" />
<glyph unicode="&#x4aa;" horiz-adv-x="1335" d="M66 762q0 236 97.5 412t266.5 270t378 94q96 0 185.5 -14t202.5 -37l54 -11l-19 -374h-149l-56 255q-21 28 -85 44.5t-168 16.5q-128 0 -226.5 -73t-154 -215.5t-55.5 -343.5q0 -186 49.5 -342.5t153 -252t258.5 -95.5q161 0 231 74l87 211l142 -19l-44 -306 q-27 -2 -52 -8.5t-65 -20.5q-68 -24 -130 -37t-153 -13h-11q42 -50 74.5 -118.5t32.5 -138.5q0 -116 -66 -165t-198 -49h-1q-35 0 -76.5 7.5t-67.5 19.5l1 153q19 -7 45 -10.5t41 -3.5h1q52 0 81.5 9.5t45 40t15.5 91.5q0 42 -16 89t-36 83q-197 25 -334 124.5t-208 265 t-71 387.5z" />
<glyph unicode="&#x4ab;" horiz-adv-x="1047" d="M77 554q0 171 66 310.5t196 221.5t314 82q144 0 308 -62l-10 -308h-139l-46 187q-14 33 -55.5 49t-99.5 16q-88 0 -153 -48.5t-101 -145t-36 -238.5q0 -165 43 -274t117 -161t167 -52q87 0 160.5 25.5t125.5 62.5l43 -92q-51 -54 -146.5 -97.5t-198.5 -51.5 q42 -49 75 -118t33 -140q0 -116 -66 -165t-198 -49h-1q-35 0 -76.5 7.5t-67.5 19.5l1 153q19 -7 45 -10.5t41 -3.5h1q52 0 81.5 9.5t45 40t15.5 91.5q0 41 -15.5 87.5t-34.5 81.5q-142 19 -239.5 97.5t-146 200.5t-48.5 274z" />
<glyph unicode="&#x4ac;" horiz-adv-x="1474" d="M65 975l35 547h1266l32 -547h-143l-76 418l-320 10v-1270h336q0 -20 -28 -261t-31 -249h-143q-2 49 -14.5 202.5t-17.5 174.5h-604v109l261 24v1270l-333 -10l-75 -418h-145z" />
<glyph unicode="&#x4ad;" horiz-adv-x="1276" d="M68 707l11 430h1117l12 -430h-144l-59 298l-253 19v-891h313q0 -19 -23.5 -225t-33.5 -285h-143q-2 47 -15.5 206.5t-18.5 170.5h-571v109l266 24v891l-258 -19l-56 -298h-144z" />
<glyph unicode="&#x4ae;" horiz-adv-x="1317" d="M-28 1411v111h548v-111l-155 -26l282 -543l57 -145l65 143l268 546l-162 25v111h473v-111l-133 -25l-420 -789v-465l224 -23v-109h-686v109l219 24v459l-452 792z" />
<glyph unicode="&#x4af;" horiz-adv-x="1279" d="M10 1030v107h544v-107l-166 -28l269 -731l24 -72l24 74l274 728l-168 29v107h465v-107l-130 -28l-376 -915v-448l219 -27v-108h-646v108l197 26v427l-411 936z" />
<glyph unicode="&#x4b0;" horiz-adv-x="1315" d="M-29 1411v111h548v-111l-155 -26l282 -543l57 -145l65 143l268 546l-162 25v111h473v-111l-133 -25l-407 -763h395v-120h-408v-371l224 -23v-109h-686v109l219 24v370h-435v120h417l-434 761z" />
<glyph unicode="&#x4b1;" horiz-adv-x="1279" d="M10 1030v107h544v-107l-166 -28l269 -731l24 -72l24 74l274 728l-168 29v107h465v-107l-130 -28l-364 -886h346v-116h-358v-361l219 -27v-108h-646v108l197 26v362l-369 1v115h347l-389 885z" />
<glyph unicode="&#x4b2;" horiz-adv-x="1467" d="M12 0v109l175 23l424 628l-419 625l-150 26v111h613v-111l-181 -26l309 -500l306 500l-173 26v111h508v-111l-160 -26l-410 -585l452 -667h201q0 -20 -27.5 -259.5t-30.5 -247.5h-143q-1 40 -14 196t-18 178h-424v109l174 24l-339 540l-317 -541l196 -23v-109h-552z" />
<glyph unicode="&#x4b3;" d="M14 0v106l137 19l347 443l-338 437l-118 26v106h530v-106l-138 -26l176 -246l59 -90l51 89l184 247l-147 26v106h441v-106l-125 -26l-329 -412l351 -465h170q0 -18 -26.5 -256t-29.5 -249h-141q-2 62 -14 208t-21 169h-351v106l131 19l-243 356l-51 -89l-185 -266 l165 -20v-106h-485z" />
<glyph unicode="&#x4b4;" horiz-adv-x="2018" d="M65 991l25 531h1065l25 -530h-141l-64 393l-233 11v-1268h740v1258l-155 25v111h550v-111l-164 -25v-1253h262q0 -20 -27.5 -259.5t-30.5 -247.5h-144q0 45 -13 198t-19 176h-1404v109l173 24v1263l-239 -11l-62 -394h-144z" />
<glyph unicode="&#x4b5;" horiz-adv-x="1887" d="M59 683l21 454h1017l19 -454h-143l-60 325l-201 17v-899h675v875l-158 29v107h549v-107l-160 -29v-871h252q-10 -97 -29 -263t-29 -244h-144q-1 42 -13.5 202t-17.5 175h-1362v109l205 23v893l-219 -17l-58 -325h-144z" />
<glyph unicode="&#x4b6;" horiz-adv-x="1429" d="M17 1409v113h521v-113l-164 -27v-262q0 -181 21 -260t74 -103t172 -24q80 0 159.5 20.5t125.5 55.5v577l-174 25v111h585v-111l-179 -26v-1252h232q0 -21 -27.5 -262t-30.5 -248h-142q-2 50 -15 204t-19 173h-432v109l202 25v547q-61 -44 -157.5 -71t-189.5 -27 q-145 0 -240 43t-145.5 145.5t-50.5 277.5v333z" />
<glyph unicode="&#x4b7;" horiz-adv-x="1353" d="M24 1030v107h484v-107l-132 -28v-112q0 -157 19 -233t69 -104.5t155 -28.5q73 0 152 12.5t111 31.5v434l-161 28v107h522v-107l-137 -28v-872h232q0 -20 -27.5 -259.5t-30.5 -247.5h-142q-4 62 -16 214.5t-17 162.5h-401v109l178 24v318q-146 -67 -343 -67 q-135 0 -221 41t-129 136.5t-43 256.5v184z" />
<glyph unicode="&#x4b8;" horiz-adv-x="1447" d="M17 1410v112h531v-112l-170 -27v-263q0 -178 18 -257t63 -103.5t145 -26.5v305h119v-302q145 12 226 66v584l-177 27v109h589v-111l-179 -25v-1253l179 -27v-106h-617v110l205 25v538q-95 -58 -226 -80v-234h-119v224h-19q-160 0 -255 45t-139 148.5t-44 283.5v323z" />
<glyph unicode="&#x4b9;" horiz-adv-x="1422" d="M24 1030v107h490v-107l-137 -29v-108q0 -138 21 -213.5t68.5 -108.5t132.5 -40v284h124v-285q71 4 135 15t93 26v430l-149 29v107h510v-107l-137 -29v-875l144 -17v-109h-536v109l168 17v327q-91 -40 -228 -56v-209h-124v201h-18q-147 0 -242 40t-144 135t-49 259v179z " />
<glyph unicode="&#x4ba;" horiz-adv-x="1424" d="M79 1420v102h614v-102l-202 -28v-539q63 38 178 62t211 24q143 0 229.5 -42.5t128.5 -144t42 -279.5v-339l120 -22v-112h-521v112l170 22v268q0 185 -23.5 265.5t-74 101t-162.5 20.5q-79 0 -170 -19t-128 -44v-592l174 -25v-109h-585v109l178 25v1258z" />
<glyph unicode="&#x4bb;" horiz-adv-x="1356" d="M44 1541v95l339 43h5l48 -34l1 -464l-9 -179q68 60 178 110.5t226 50.5q128 0 199.5 -49t100 -150.5t28.5 -272.5v-565l144 -17v-109h-503v108l131 17v567q0 116 -15.5 182.5t-59.5 100t-129 33.5q-72 0 -151 -29.5t-139 -74.5v-778l142 -17v-109h-491v109l120 16v1396z " />
<glyph unicode="&#x4bc;" horiz-adv-x="1604" d="M-16 948q0 36 12 74t28 67t28 36l167 -28q-13 -14 -29 -62.5t-16 -73.5q0 -110 160 -112q20 206 111.5 362.5t236 241.5t316.5 85q155 0 275 -69.5t188.5 -205t70.5 -327.5q0 -148 -14 -209l-955 1l1 -11q5 -196 64 -336.5t154 -213t206 -72.5q122 0 194.5 32t117.5 86 l42 150l148 -3l-8 -304q-28 -1 -57.5 -7t-81.5 -19q-99 -25 -186 -39t-206 -14q-185 0 -324.5 92t-217 261.5t-80.5 395.5q-149 2 -247 57.5t-98 164.5zM562 849h726q6 50 6 100q-2 112 -37 217t-111.5 174t-196.5 69q-170 0 -275.5 -134t-111.5 -426z" />
<glyph unicode="&#x4bd;" horiz-adv-x="1343" d="M-3 783q0 42 18.5 97.5t34.5 67.5l165 -28q-13 -15 -26.5 -59.5t-13.5 -69.5q0 -45 32.5 -74.5t117.5 -33.5q21 146 93 256t184.5 169.5t250.5 59.5q192 0 296.5 -103t112.5 -303l1 -53q0 -96 -12 -145h-691v-2q4 -147 49 -243.5t119.5 -142t168.5 -45.5q87 0 171.5 28 t133.5 66l41 -96q-38 -39 -104 -74t-147.5 -56.5t-161.5 -21.5q-167 0 -282 74.5t-172 207t-58 308.5q-143 4 -232 57t-89 159zM560 680h462l1 21q2 40 2 60q0 125 -50.5 208t-165.5 83q-110 0 -175.5 -85t-73.5 -287z" />
<glyph unicode="&#x4be;" horiz-adv-x="1604" d="M-16 948q0 36 12 74t28 67t28 36l167 -28q-13 -14 -29 -62.5t-16 -73.5q0 -110 160 -112q20 206 111.5 362.5t236 241.5t316.5 85q155 0 275 -69.5t188.5 -205t70.5 -327.5q0 -148 -14 -209l-955 1l1 -11q5 -196 64 -336.5t154 -213t206 -72.5q122 0 194.5 32t117.5 86 l42 150l148 -3l-8 -304q-28 -1 -57 -7t-83 -19q-76 -20 -142.5 -32.5t-152.5 -17.5q45 -52 79 -126t30 -148q-5 -108 -70.5 -154t-193.5 -46h-1q-35 0 -76.5 7.5t-67.5 19.5l1 153q19 -7 45 -10.5t41 -3.5h1q52 0 81.5 9.5t45 40t15.5 91.5q0 39 -14 83.5t-33 80.5 q-179 5 -313.5 98.5t-209.5 261t-78 389.5q-149 2 -247 57.5t-98 164.5zM562 849h726q6 50 6 100q-2 112 -37 217t-111.5 174t-196.5 69q-170 0 -275.5 -134t-111.5 -426z" />
<glyph unicode="&#x4bf;" horiz-adv-x="1343" d="M-3 783q0 42 18.5 97.5t34.5 67.5l165 -28q-13 -15 -26.5 -59.5t-13.5 -69.5q0 -45 32.5 -74.5t117.5 -33.5q21 146 93 256t184.5 169.5t250.5 59.5q192 0 296.5 -103t112.5 -303l1 -53q0 -96 -12 -145h-691v-2q4 -147 49 -243.5t119.5 -142t168.5 -45.5q87 0 171.5 28 t133.5 66l41 -96q-53 -54 -153.5 -97.5t-208.5 -52.5q42 -50 75 -119t33 -140q0 -116 -66 -165t-198 -49h-1q-35 0 -76.5 7.5t-67.5 19.5l1 153q19 -7 45 -10.5t41 -3.5h1q52 0 81.5 9.5t45 40t15.5 91.5q0 41 -15 86t-34 81q-145 16 -244 93.5t-148.5 204t-50.5 289.5 q-143 4 -232 57t-89 159zM560 680h462l1 21q2 40 2 60q0 125 -50.5 208t-165.5 83q-110 0 -175.5 -85t-73.5 -287z" />
<glyph unicode="&#x4c0;" horiz-adv-x="827" d="M112 0v109l183 24v1252l-183 26v111h602v-111l-183 -25v-1253l186 -27v-106h-605z" />
<glyph unicode="&#x4c1;" horiz-adv-x="2131" d="M14 0v109l81 24q31 10 74 69t121 181q71 112 123 186.5t110 137t111 86.5l-429 593l-160 25v111h503v-111l-153 -26l388 -579h170v579l-166 26v111h558v-111l-167 -25v-580h170l387 578l-152 27v111h505v-111l-161 -25l-430 -593q54 -24 112 -86.5t108.5 -136 t123.5 -187.5q78 -122 121 -181t75 -69l81 -24v-109h-267q-34 0 -76 45t-84 112t-104 177q-69 121 -114.5 192.5t-92.5 121.5t-88 50h-114v-565l172 -27v-106h-566v109l169 25v564h-114q-41 0 -88.5 -50t-93.5 -123.5t-113 -191.5q-66 -115 -106 -179.5t-81.5 -109 t-75.5 -44.5h-267zM675 1969l2 44h170q34 0 34 -84q0 -79 43.5 -122t144.5 -43t144.5 43t43.5 122q0 84 34 84h170l2 -44q0 -308 -395 -308q-191 0 -292 76.5t-101 231.5z" />
<glyph unicode="&#x4c2;" horiz-adv-x="1911" d="M-6 1v108l82 24q31 9 66 53t92 132q78 118 138 192t130 110l-305 382l-149 28v107h479v-107l-147 -27l256 -358h209v357l-142 28v107h525l1 -107l-163 -29v-356h208l256 358l-146 27v107h479v-107l-148 -28l-307 -383q70 -36 130.5 -110t138.5 -193q61 -91 94 -133 t63 -50l83 -24v-109h-231q-41 0 -80.5 36.5t-74.5 90.5t-85 143q-51 90 -85 142.5t-72.5 88.5t-78.5 36l-144 1v-405l172 -24v-109h-543v109l150 23v406h-144q-40 0 -78.5 -36t-72.5 -88.5t-85 -142.5q-50 -89 -85 -143t-74.5 -90.5t-80.5 -36.5h-231zM547 1690q0 18 2 40 h161q20 0 27 -23.5t7 -59.5q0 -54 20.5 -101.5t64.5 -77.5t113 -30q99 0 144 61t45 148q0 83 34 83h163q2 -22 2 -40q0 -110 -44.5 -193t-132 -129t-212.5 -46q-123 0 -212 46.5t-135.5 130t-46.5 191.5z" />
<glyph unicode="&#x4c3;" horiz-adv-x="1453" d="M102 0v109l163 25v1251l-163 26v111h554v-111l-162 -26v-586l1 1q36 17 93.5 33.5t117.5 27.5l355 523l-163 27v111h508v-111l-159 -25l-372 -512q160 -8 251.5 -71.5t128.5 -173t37 -269.5q0 -233 -54.5 -405.5t-162.5 -267t-264 -94.5q-37 0 -79 5t-60 13l-3 135 q30 -6 92 -6q108 0 171.5 55t93.5 183t30 351q0 140 -27.5 228t-89.5 131.5t-165 43.5q-58 0 -103 -6.5t-76.5 -15.5t-99.5 -30h-1v-547l172 -27v-106h-564z" />
<glyph unicode="&#x4c4;" horiz-adv-x="1297" d="M100 0v109l147 18v874l-144 29v107h530v-107l-163 -28v-388q32 20 98 36.5t126 20.5l234 331l-145 28v107h481v-107l-152 -29l-269 -337q188 -25 270.5 -132t82.5 -290q0 -238 -55.5 -404t-163 -252t-260.5 -86q-32 0 -69 5.5t-52 12.5l-2 123q26 -6 92 -6 q106 0 168.5 61t89.5 190t27 341q0 169 -76 240.5t-223 71.5q-47 0 -104.5 -11t-97.5 -30v-372l174 -17v-109h-544z" />
<glyph unicode="&#x4c5;" horiz-adv-x="1519" d="M59 182q8 -1 47.5 -4.5t112.5 -3.5q42 0 73 21t56 69q46 80 76.5 191.5t48.5 298.5t18 473v158l-235 26v111h1183v-111l-188 -26v-1258h219v-127q-10 -25 -57 -151q-9 -24 -45.5 -122t-41.5 -106h-148q7 19 34 130t39 157l22 92h-465v109l213 25l1 1252h-393v-181 q0 -391 -42 -660.5t-119 -402.5q-45 -80 -106.5 -117t-145.5 -37q-40 0 -80 3.5t-61 8.5z" />
<glyph unicode="&#x4c6;" horiz-adv-x="1288" d="M19 191q43 -10 139 -10q57 0 101 107t68.5 294t24.5 419l-187 29v107h1044v-111l-178 -31v-868h232v-127q-6 -11 -70 -181q-71 -187 -77 -196h-145q10 23 46 167.5t44 175.5l8 34h-418v109l154 18v884h-328v-112q0 -182 -17.5 -336.5t-45.5 -265t-59 -170.5 q-22 -47 -47.5 -76t-68 -46.5t-110.5 -17.5q-47 0 -97 13z" />
<glyph unicode="&#x4c7;" horiz-adv-x="1688" d="M99 0v109l167 24v1252l-161 26v111h569v-109l-173 -27v-540h698v540l-165 27v109h574v-111l-174 -26v-856q0 -227 -4 -346t-21 -208q-24 -92 -92.5 -163.5t-162.5 -116.5t-198 -63l-56 94q90 24 157.5 74.5t100.5 128.5q17 52 25.5 111t11.5 150t4 259v266h-698v-581 l173 -24v-110h-575z" />
<glyph unicode="&#x4c8;" horiz-adv-x="1492" d="M100 0v109l147 17v875l-146 29v107h534v-107l-164 -29v-348h556v349l-165 28v107h528v-107l-140 -29v-801q0 -304 -113.5 -454t-333.5 -150q-28 0 -68 4.5t-57 10.5v129q25 -3 80 -3q110 0 167 45.5t79.5 155.5t22.5 321v269h-556v-408l175 -18v-102h-546z" />
<glyph unicode="&#x4c9;" horiz-adv-x="1700" d="M99 0v108l167 26v1252l-161 27v109h568v-109l-172 -27v-540h699v540l-163 27v109h559v-109l-160 -27v-1259h190v-127q-11 -20 -66 -169q-10 -26 -43.5 -113.5t-39.5 -94.5h-147q14 36 91 350l7 27h-391v108l163 26v580h-699v-581l173 -25v-108h-575z" />
<glyph unicode="&#x4ca;" horiz-adv-x="1497" d="M100 0v109l147 17v878l-146 26v107h534v-107l-163 -27v-350h553v351l-163 26v107h528v-107l-139 -26v-880h164v-124q-5 -9 -70 -182q-12 -31 -41.5 -110t-34.5 -85h-148q8 17 69 268q11 40 17.5 68t10.5 41h-362v109l169 18v401h-553v-402l169 -17v-109h-541z" />
<glyph unicode="&#x4cb;" horiz-adv-x="1424" d="M17 1409v113h521v-113l-164 -27v-262q0 -181 21 -260t74 -103t172 -24q80 0 159.5 20.5t125.5 55.5v577l-174 25v111h585v-111l-179 -26v-1252l180 -27v-106h-404q-5 -12 -40.5 -156t-53.5 -221h-145q3 82 12.5 279t12.5 233h206v546q-61 -44 -157.5 -71t-189.5 -27 q-145 0 -240 43t-145.5 145.5t-50.5 277.5v333z" />
<glyph unicode="&#x4cc;" horiz-adv-x="1354" d="M25 1030v107h486v-107l-134 -29v-111q0 -157 19 -233t69 -104.5t155 -28.5q72 0 151.5 12.5t111.5 31.5v433l-161 29v107h521v-107l-136 -28v-870l144 -23v-109h-378q-6 -13 -43.5 -172.5t-46.5 -206.5h-148q3 82 11 246.5t13 262.5h224v321q-70 -32 -167 -49.5 t-197 -17.5q-134 0 -215 41t-119.5 135.5t-38.5 257.5v184z" />
<glyph unicode="&#x4cd;" horiz-adv-x="2058" d="M4 0v109l177 23l158 1254l-212 25v111h547l318 -1007l46 -219l44 219l296 1007h537v-111l-211 -26l175 -1261h203v-124q-7 -13 -66 -178q-68 -191 -76 -201h-148q8 19 72 294l20 85h-422v109l174 23l-101 908l-47 391l-65 -263l-352 -1184h-130l-359 1069l-110 378 l-31 -390l-86 -909l195 -23v-109h-546z" />
<glyph unicode="&#x4ce;" horiz-adv-x="1812" d="M14 0v110l160 17l137 876l-188 29v107h508l223 -676l63 -209l52 209l207 676h511v-107l-202 -29l149 -874h164v-127q-7 -12 -74 -193q-66 -179 -71 -186h-149q12 27 77 298q7 30 19 79h-359v109l159 19l-85 580l-39 323l-96 -320l-234 -722h-144l-369 1032l-24 -309 l-80 -585l179 -18v-109h-494z" />
<glyph unicode="&#x4cf;" horiz-adv-x="827" d="M112 0v109l183 24v1252l-183 26v111h602v-111l-183 -25v-1253l186 -27v-106h-605z" />
<glyph unicode="&#x4d0;" horiz-adv-x="1417" d="M-34 109l127 24l493 1401h238l497 -1401l127 -24v-109h-549v109l163 24l-95 292h-588l-91 -292l171 -24v-109h-492zM307 1969l2 44h170q34 0 34 -84q0 -79 43.5 -122t144.5 -43t144.5 43t43.5 122q0 84 34 84h170l2 -44q0 -308 -395 -308q-191 0 -292 76.5t-101 231.5z M419 552h507l-214 657l-44 168l-44 -170z" />
<glyph unicode="&#x4d1;" horiz-adv-x="1148" d="M85 302q0 133 92.5 219t243 126.5t334.5 43.5v52q0 94 -19.5 148t-67.5 79t-136 25q-169 0 -356 -95h-1l-50 104q27 24 103.5 62t174 66.5t185.5 28.5q146 0 229.5 -39.5t120.5 -126.5t37 -235v-650h122v-98q-146 -35 -220 -35q-42 0 -64 7t-32.5 28.5t-10.5 66.5v48 q-54 -53 -142 -101.5t-197 -48.5q-96 0 -174.5 35t-125 108t-46.5 182zM140 1690q0 18 2 40h161q20 0 27 -23.5t7 -59.5q0 -54 20.5 -101.5t64.5 -77.5t113 -30q99 0 144 61t45 148q0 83 34 83h163q2 -22 2 -40q0 -110 -44.5 -193t-132 -129t-212.5 -46q-123 0 -212 46.5 t-135.5 130t-46.5 191.5zM334 331q0 -105 52 -154t140 -49q47 0 113.5 26.5t115.5 64.5v359q-147 0 -241.5 -33.5t-137 -88.5t-42.5 -125z" />
<glyph unicode="&#x4d2;" horiz-adv-x="1417" d="M-34 109l127 24l493 1401h238l497 -1401l127 -24v-109h-549v109l163 24l-95 292h-588l-91 -292l171 -24v-109h-492zM323 1823q0 68 38.5 114t108.5 46h1q41 0 71 -19.5t45.5 -51t15.5 -66.5q0 -70 -39.5 -114.5t-114.5 -44.5h-1q-55 0 -90 39.5t-35 96.5zM419 552h507 l-214 657l-44 168l-44 -170zM823 1823q0 68 38.5 114t107.5 46h1q42 0 72 -19.5t45.5 -51t15.5 -66.5q0 -70 -39 -114.5t-114 -44.5h-1q-56 0 -91 39.5t-35 96.5z" />
<glyph unicode="&#x4d3;" horiz-adv-x="1148" d="M85 302q0 133 92.5 219t243 126.5t334.5 43.5v52q0 94 -19.5 148t-67.5 79t-136 25q-169 0 -356 -95h-1l-50 104q27 24 103.5 62t174 66.5t185.5 28.5q146 0 229.5 -39.5t120.5 -126.5t37 -235v-650h122v-98q-146 -35 -220 -35q-42 0 -64 7t-32.5 28.5t-10.5 66.5v48 q-54 -53 -142 -101.5t-197 -48.5q-96 0 -174.5 35t-125 108t-46.5 182zM192 1492q0 67 38 113.5t109 46.5h1q61 0 96.5 -41t35.5 -97q0 -70 -39.5 -114.5t-113.5 -44.5h-1q-57 0 -91.5 39t-34.5 98zM334 331q0 -105 52 -154t140 -49q47 0 113.5 26.5t115.5 64.5v359 q-147 0 -241.5 -33.5t-137 -88.5t-42.5 -125zM660 1492q0 67 38.5 113.5t108.5 46.5h1q62 0 97.5 -41t35.5 -97q0 -70 -39.5 -114.5t-115.5 -44.5h-1q-55 0 -90 40t-35 97z" />
<glyph unicode="&#x4d4;" horiz-adv-x="1887" d="M-176 0v106l148 26l554 1256l-264 25v109h1427l31 -320h-127l-66 195l-480 12v-568l324 6l30 165h127v-468h-127l-30 171l-324 5v-597l556 23l126 252l132 -38l-75 -360h-1142v107l170 23v304h-517l-122 -304l152 -24v-106h-503zM350 564h464v836h-125l-107 -260z" />
<glyph unicode="&#x4d5;" horiz-adv-x="1781" d="M83 301q0 134 91.5 219.5t241 125.5t331.5 43v61q0 94 -18.5 146.5t-65 76.5t-134.5 24q-100 0 -187 -27t-180 -70l-50 102q31 27 109.5 65t176.5 66t187 28q135 0 214.5 -34.5t118.5 -109.5q71 73 166.5 112t206.5 39q191 0 297 -104.5t113 -303.5q0 -70 -2.5 -116 t-9.5 -80h-694q4 -147 50 -244t121 -143t169 -46q82 0 169 28.5t135 65.5l42 -96q-38 -39 -104.5 -74t-148 -56.5t-161.5 -21.5q-146 0 -252.5 56.5t-170.5 161.5q-37 -52 -95.5 -101.5t-141 -83t-179.5 -33.5q-94 0 -172.5 35t-125.5 108t-47 181zM331 332 q0 -107 51.5 -155.5t138.5 -48.5q58 0 114 24.5t99.5 61.5t65.5 73q-46 123 -46 284v3l-7 5v2q-143 0 -236 -34t-136.5 -90t-43.5 -125zM995 680h466q3 41 3 86q-1 127 -53 204t-164 77q-111 0 -177 -83.5t-75 -283.5z" />
<glyph unicode="&#x4d6;" horiz-adv-x="1339" d="M96 0v109l168 24v1253l-165 25v111h1042l28 -317h-129l-62 190l-479 13v-565l325 6l30 166h129v-474h-129l-29 176l-326 5v-598l550 22l113 251l128 -38l-59 -359h-1135zM287 1969l2 44h170q34 0 34 -84q0 -79 43.5 -122t144.5 -43t144.5 43t43.5 122q0 84 34 84h170 l2 -44q0 -308 -395 -308q-191 0 -292 76.5t-101 231.5z" />
<glyph unicode="&#x4d7;" horiz-adv-x="1112" d="M85 571q0 176 69 312t191 210.5t277 74.5q192 0 297 -105t112 -303v-36q0 -105 -12 -160h-693q4 -147 50 -244t121 -143t169 -46q82 0 168.5 28.5t135.5 65.5l42 -96q-38 -39 -104.5 -74t-148 -56.5t-161.5 -21.5q-168 0 -283.5 74.5t-172.5 208t-57 311.5zM194 1690 q0 18 2 40h161q20 0 27 -23.5t7 -59.5q0 -54 20.5 -101.5t64.5 -77.5t113 -30q99 0 144 61t45 148q0 83 34 83h163q2 -22 2 -40q0 -110 -44.5 -193t-132 -129t-212.5 -46q-123 0 -212 46.5t-135.5 130t-46.5 191.5zM326 680h465q4 36 4 86q-1 127 -53 204t-164 77 t-177.5 -83.5t-74.5 -283.5z" />
<glyph unicode="&#x4d8;" horiz-adv-x="1339" d="M73 579q0 79 2.5 128.5t10.5 83.5h951v7q-6 196 -64.5 337t-153 213t-207.5 72q-211 0 -307 -112l-43 -156l-147 3l10 304q28 1 57.5 7t81.5 19q98 25 184.5 39t205.5 14q187 0 328 -94t217.5 -267.5t76.5 -405.5q0 -237 -88.5 -417.5t-241.5 -278.5t-340 -98 q-155 0 -275 69.5t-188 205t-70 327.5zM312 558q0 -109 36.5 -212.5t114 -170.5t193.5 -67q173 0 275 133.5t108 424.5h-721q-6 -55 -6 -108z" />
<glyph unicode="&#x4d9;" horiz-adv-x="1097" d="M81 424q0 82 13 156h680v3q-4 147 -49 243.5t-118.5 142t-166.5 45.5q-79 0 -164.5 -28.5t-132.5 -65.5l-41 96q37 39 101.5 74t144.5 56.5t159 21.5q165 0 278.5 -75t170 -209.5t56.5 -312.5q0 -176 -67.5 -311t-187.5 -209t-272 -74q-189 0 -292 104.5t-111 303.5z M318 383q1 -130 50 -210t161 -80q108 0 171.5 84.5t72.5 285.5h-451q-4 -31 -4 -80z" />
<glyph unicode="&#x4da;" horiz-adv-x="1339" d="M73 579q0 79 2.5 128.5t10.5 83.5h951v7q-6 196 -64.5 337t-153 213t-207.5 72q-211 0 -307 -112l-43 -156l-147 3l10 304q28 1 57.5 7t81.5 19q98 25 184.5 39t205.5 14q187 0 328 -94t217.5 -267.5t76.5 -405.5q0 -237 -88.5 -417.5t-241.5 -278.5t-340 -98 q-155 0 -275 69.5t-188 205t-70 327.5zM286 1823q0 68 38.5 114t108.5 46h1q41 0 71 -19.5t45.5 -51t15.5 -66.5q0 -70 -39.5 -114.5t-114.5 -44.5h-1q-55 0 -90 39.5t-35 96.5zM312 558q0 -109 36.5 -212.5t114 -170.5t193.5 -67q173 0 275 133.5t108 424.5h-721 q-6 -55 -6 -108zM786 1823q0 68 38.5 114t107.5 46h1q42 0 72 -19.5t45.5 -51t15.5 -66.5q0 -70 -39 -114.5t-114 -44.5h-1q-56 0 -91 39.5t-35 96.5z" />
<glyph unicode="&#x4db;" horiz-adv-x="1098" d="M82 424q0 82 13 156h680v3q-4 147 -49 243.5t-118.5 142t-166.5 45.5q-79 0 -164.5 -28.5t-132.5 -65.5l-41 96q37 39 101.5 74t144.5 56.5t159 21.5q165 0 278.5 -75t170 -209.5t56.5 -312.5q0 -176 -67.5 -311t-187.5 -209t-272 -74q-189 0 -292 104.5t-111 303.5z M165 1492q0 67 38 113.5t109 46.5h1q61 0 96.5 -41t35.5 -97q0 -70 -39.5 -114.5t-113.5 -44.5h-1q-57 0 -91.5 39t-34.5 98zM319 383q1 -130 50 -210t161 -80q108 0 171.5 84.5t72.5 285.5h-451q-4 -31 -4 -80zM633 1492q0 67 38.5 113.5t108.5 46.5h1q62 0 97.5 -41 t35.5 -97q0 -70 -39.5 -114.5t-115.5 -44.5h-1q-55 0 -90 40t-35 97z" />
<glyph unicode="&#x4dc;" horiz-adv-x="2131" d="M14 0v109l81 24q31 10 74 69t121 181q71 112 123 186.5t110 137t111 86.5l-429 593l-160 25v111h503v-111l-153 -26l388 -579h170v579l-166 26v111h558v-111l-167 -25v-580h170l387 578l-152 27v111h505v-111l-161 -25l-430 -593q54 -24 112 -86.5t108.5 -136 t123.5 -187.5q78 -122 121 -181t75 -69l81 -24v-109h-267q-34 0 -76 45t-84 112t-104 177q-69 121 -114.5 192.5t-92.5 121.5t-88 50h-114v-565l172 -27v-106h-566v109l169 25v564h-114q-41 0 -88.5 -50t-93.5 -123.5t-113 -191.5q-66 -115 -106 -179.5t-81.5 -109 t-75.5 -44.5h-267zM677 1823q0 68 38.5 114t108.5 46h1q41 0 71 -19.5t45.5 -51t15.5 -66.5q0 -70 -39.5 -114.5t-114.5 -44.5h-1q-55 0 -90 39.5t-35 96.5zM1177 1823q0 68 38.5 114t107.5 46h1q42 0 72 -19.5t45.5 -51t15.5 -66.5q0 -70 -39 -114.5t-114 -44.5h-1 q-56 0 -91 39.5t-35 96.5z" />
<glyph unicode="&#x4dd;" horiz-adv-x="1911" d="M-6 1v108l82 24q31 9 66 53t92 132q78 118 138 192t130 110l-305 382l-149 28v107h479v-107l-147 -27l256 -358h209v357l-142 28v107h525l1 -107l-163 -29v-356h208l256 358l-146 27v107h479v-107l-148 -28l-307 -383q70 -36 130.5 -110t138.5 -193q61 -91 94 -133 t63 -50l83 -24v-109h-231q-41 0 -80.5 36.5t-74.5 90.5t-85 143q-51 90 -85 142.5t-72.5 88.5t-78.5 36l-144 1v-405l172 -24v-109h-543v109l150 23v406h-144q-40 0 -78.5 -36t-72.5 -88.5t-85 -142.5q-50 -89 -85 -143t-74.5 -90.5t-80.5 -36.5h-231zM584 1492 q0 67 38 113.5t109 46.5h1q61 0 96.5 -41t35.5 -97q0 -70 -39.5 -114.5t-113.5 -44.5h-1q-57 0 -91.5 39t-34.5 98zM1052 1492q0 67 38.5 113.5t108.5 46.5h1q62 0 97.5 -41t35.5 -97q0 -70 -39.5 -114.5t-115.5 -44.5h-1q-55 0 -90 40t-35 97z" />
<glyph unicode="&#x4de;" horiz-adv-x="1243" d="M92 69l43 352h103l67 -257q94 -53 268 -53q140 0 218.5 81.5t78.5 238.5q0 131 -68 212.5t-251 81.5h-145v124h120q81 0 155.5 34t121.5 104.5t47 174.5q0 132 -75.5 195t-200.5 63q-90 0 -146 -23t-76 -62l-44 -176h-139l-21 313q41 2 135 25q96 20 156.5 30.5 t122.5 10.5q258 0 399 -86t141 -259q0 -111 -51.5 -192t-132 -128.5t-171.5 -66.5q133 -3 223 -52.5t133.5 -129.5t43.5 -176q0 -216 -149 -338t-470 -122q-134 0 -239 24t-197 57zM221 1823q0 68 38.5 114t108.5 46h1q41 0 71 -19.5t45.5 -51t15.5 -66.5 q0 -70 -39.5 -114.5t-114.5 -44.5h-1q-55 0 -90 39.5t-35 96.5zM721 1823q0 68 38.5 114t107.5 46h1q42 0 72 -19.5t45.5 -51t15.5 -66.5q0 -70 -39 -114.5t-114 -44.5h-1q-56 0 -91 39.5t-35 96.5z" />
<glyph unicode="&#x4df;" horiz-adv-x="1104" d="M98 60l22 241h137l35 -140q25 -29 89 -44.5t133 -15.5q140 0 208 58t68 155q0 104 -58.5 162t-201.5 57q-20 -2 -56.5 -7t-56.5 -8l1 135l74 8q123 16 186 71t63 143q0 84 -49.5 126.5t-170.5 42.5q-87 0 -147.5 -22t-81.5 -48l-35 -169h-142v301q41 0 76.5 5.5 t92.5 17.5q72 15 131.5 23.5t139.5 8.5q208 0 318 -71t110 -202q0 -86 -66 -160t-177 -111q97 -9 167 -46t106 -96.5t36 -134.5q0 -110 -57 -190t-170 -123t-278 -43q-144 0 -258 23.5t-188 52.5zM159 1492q0 67 38 113.5t109 46.5h1q61 0 96.5 -41t35.5 -97 q0 -70 -39.5 -114.5t-113.5 -44.5h-1q-57 0 -91.5 39t-34.5 98zM627 1492q0 67 38.5 113.5t108.5 46.5h1q62 0 97.5 -41t35.5 -97q0 -70 -39.5 -114.5t-115.5 -44.5h-1q-55 0 -90 40t-35 97z" />
<glyph unicode="&#x4e0;" horiz-adv-x="1175" d="M67 65l42 345h133l57 -249q64 -49 222 -49q117 0 199.5 47t124 123.5t41.5 164.5q0 106 -34 175t-117 108t-228 45q-57 0 -88 -2l-32 84q72 82 224 258t221 256l-521 -6l-43 -208h-143l-22 365h983v-109l-489 -544q64 10 132 10q207 0 314.5 -99.5t107.5 -294.5 q0 -147 -79.5 -259.5t-227 -175.5t-344.5 -63q-128 0 -221 19.5t-179 47.5q-23 9 -33 11z" />
<glyph unicode="&#x4e1;" horiz-adv-x="1102" d="M95 -76h120l69 -269q101 -44 175 -44q174 0 259.5 104.5t85.5 296.5q0 127 -79.5 211.5t-281.5 84.5q-28 0 -42 -1l-43 65l396 642l-462 -3l-46 -237h-151l4 361h920l39 -101l-451 -596q142 0 246 -50t159.5 -144t55.5 -223q0 -151 -71 -273.5t-201 -192.5t-299 -70 q-92 0 -173 14.5t-126.5 29t-101.5 35.5z" />
<glyph unicode="&#x4e2;" horiz-adv-x="1727" d="M98 0v109l168 25v1251l-161 26v111h470v64h558v-64h490v-111l-161 -26v-1252l170 -24v-109h-575v109l174 24v1010l-125 -199l-610 -740v-70l180 -25v-109h-578zM496 388l137 210l598 735v53l-170 25v17h-378v-16l-187 -26v-998z" />
<glyph unicode="&#x4e3;" horiz-adv-x="1518" d="M100 0v109l147 18v874l-144 30v106h529v-107l-160 -28v-664l113 149l462 464v51l-153 28v107h518v-107l-140 -28v-876l149 -18v-108h-531v108l157 19v658l-121 -159l-454 -454v-51l126 -11l-1 -110h-497zM492 1428v158h558v-158h-558z" />
<glyph unicode="&#x4e4;" horiz-adv-x="1727" d="M98 0v109l168 25v1251l-161 26v111h578v-110l-187 -26v-998l137 210l598 735v53l-170 25v111h562v-111l-161 -26v-1252l170 -24v-109h-575v109l174 24v1010l-125 -199l-610 -740v-70l180 -25v-109h-578zM464 1823q0 68 38.5 114t108.5 46h1q41 0 71 -19.5t45.5 -51 t15.5 -66.5q0 -70 -39.5 -114.5t-114.5 -44.5h-1q-55 0 -90 39.5t-35 96.5zM964 1823q0 68 38.5 114t107.5 46h1q42 0 72 -19.5t45.5 -51t15.5 -66.5q0 -70 -39 -114.5t-114 -44.5h-1q-56 0 -91 39.5t-35 96.5z" />
<glyph unicode="&#x4e5;" horiz-adv-x="1518" d="M100 0v109l147 18v874l-144 30v106h529v-107l-160 -28v-664l113 149l462 464v51l-153 28v107h518v-107l-140 -28v-876l149 -18v-108h-531v108l157 19v658l-121 -159l-454 -454v-51l126 -11l-1 -110h-497zM400 1492q0 67 38 113.5t109 46.5h1q61 0 96.5 -41t35.5 -97 q0 -70 -39.5 -114.5t-113.5 -44.5h-1q-57 0 -91.5 39t-34.5 98zM868 1492q0 67 38.5 113.5t108.5 46.5h1q62 0 97.5 -41t35.5 -97q0 -70 -39.5 -114.5t-115.5 -44.5h-1q-55 0 -90 40t-35 97z" />
<glyph unicode="&#x4e6;" horiz-adv-x="1509" d="M80 750q0 236 90 415t247.5 276.5t354.5 97.5q214 0 361 -93.5t220.5 -264.5t73.5 -404q0 -239 -90.5 -420.5t-250 -280.5t-359.5 -99q-208 0 -353.5 96.5t-219.5 271t-74 405.5zM340 751q0 -200 49 -348t142 -228t223 -80q127 0 219.5 76t143.5 228.5t51 376.5 q0 200 -48.5 345.5t-141.5 223t-223 77.5q-128 0 -221 -73.5t-143.5 -223.5t-50.5 -374zM369 1823q0 68 38.5 114t108.5 46h1q41 0 71 -19.5t45.5 -51t15.5 -66.5q0 -70 -39.5 -114.5t-114.5 -44.5h-1q-55 0 -90 39.5t-35 96.5zM869 1823q0 68 38.5 114t107.5 46h1 q42 0 72 -19.5t45.5 -51t15.5 -66.5q0 -70 -39 -114.5t-114 -44.5h-1q-56 0 -91 39.5t-35 96.5z" />
<glyph unicode="&#x4e7;" d="M79 573q0 183 76.5 318t201 206t264.5 71q174 0 290 -77t172 -211.5t56 -307.5q0 -185 -76.5 -320t-201 -205t-265.5 -70q-174 0 -289.5 77t-171.5 211.5t-56 307.5zM245 1492q0 67 38 113.5t109 46.5h1q61 0 96.5 -41t35.5 -97q0 -70 -39.5 -114.5t-113.5 -44.5h-1 q-57 0 -91.5 39t-34.5 98zM331 591q0 -225 67.5 -357.5t210.5 -132.5q277 0 277 453q0 225 -66.5 357.5t-210.5 132.5q-138 0 -208 -113.5t-70 -339.5zM713 1492q0 67 38.5 113.5t108.5 46.5h1q62 0 97.5 -41t35.5 -97q0 -70 -39.5 -114.5t-115.5 -44.5h-1q-55 0 -90 40 t-35 97z" />
<glyph unicode="&#x4e8;" horiz-adv-x="1480" d="M66 750q0 236 90 415t247.5 276.5t354.5 97.5q214 0 361 -93.5t220.5 -264.5t73.5 -404q0 -239 -90.5 -420.5t-250 -280.5t-359.5 -99q-208 0 -353.5 96.5t-219.5 271t-74 405.5zM326 709q5 -188 55.5 -326.5t142 -213t216.5 -74.5q120 0 210 68.5t142.5 206t60.5 339.5 h-827zM327 822h826q-5 186 -55.5 321t-141 207t-215.5 72q-121 0 -211 -66t-142.5 -200t-60.5 -334z" />
<glyph unicode="&#x4e9;" d="M79 573q0 183 76.5 318t201 206t264.5 71q174 0 290 -77t172 -211.5t56 -307.5q0 -185 -76.5 -320t-201 -205t-265.5 -70q-174 0 -289.5 77t-171.5 211.5t-56 307.5zM332 541q7 -204 74.5 -322t202.5 -118q273 0 277 440h-554zM332 643h551q-12 187 -78.5 294t-195.5 107 q-130 0 -200 -100.5t-77 -300.5z" />
<glyph unicode="&#x4ea;" horiz-adv-x="1480" d="M66 750q0 236 90 415t247.5 276.5t354.5 97.5q214 0 361 -93.5t220.5 -264.5t73.5 -404q0 -239 -90.5 -420.5t-250 -280.5t-359.5 -99q-208 0 -353.5 96.5t-219.5 271t-74 405.5zM326 711q5 -189 55.5 -327.5t142 -213.5t216.5 -75q120 0 210.5 68.5t143 206.5t59.5 341 h-827zM327 822h826q-5 186 -55.5 321t-141 207t-215.5 72q-121 0 -211 -66t-142.5 -200t-60.5 -334zM372 1823q0 68 38.5 114t108.5 46h1q41 0 71 -19.5t45.5 -51t15.5 -66.5q0 -70 -39.5 -114.5t-114.5 -44.5h-1q-55 0 -90 39.5t-35 96.5zM872 1823q0 68 38.5 114t107.5 46 h1q42 0 72 -19.5t45.5 -51t15.5 -66.5q0 -70 -39 -114.5t-114 -44.5h-1q-56 0 -91 39.5t-35 96.5z" />
<glyph unicode="&#x4eb;" d="M79 573q0 183 76.5 318t201 206t264.5 71q174 0 290 -77t172 -211.5t56 -307.5q0 -185 -76.5 -320t-201 -205t-265.5 -70q-174 0 -289.5 77t-171.5 211.5t-56 307.5zM245 1492q0 67 38 113.5t109 46.5h1q61 0 96.5 -41t35.5 -97q0 -70 -39.5 -114.5t-113.5 -44.5h-1 q-57 0 -91.5 39t-34.5 98zM332 541q7 -204 74.5 -322t202.5 -118q273 0 277 440h-554zM332 643h551q-12 187 -78.5 294t-195.5 107q-130 0 -200 -100.5t-77 -300.5zM713 1492q0 67 38.5 113.5t108.5 46.5h1q62 0 97.5 -41t35.5 -97q0 -70 -39.5 -114.5t-115.5 -44.5h-1 q-55 0 -90 40t-35 97z" />
<glyph unicode="&#x4ec;" horiz-adv-x="1356" d="M89 354l147 24l87 -192q41 -38 98.5 -63t166.5 -25q124 0 221 72.5t153.5 210.5t59.5 327q-86 -1 -330.5 -9t-305.5 -11v189l173 -5q328 -12 458 -14q-16 160 -70 286.5t-149 201t-226 74.5q-70 0 -116 -13.5t-72.5 -33t-54.5 -50.5l-60 -189l-157 -1l4 328q28 1 55 7.5 t71 18.5q81 24 156 37.5t184 13.5q216 0 376.5 -99t246 -278t85.5 -412q0 -227 -93 -402.5t-259.5 -272.5t-378.5 -97q-90 0 -155.5 13t-141.5 36q-49 15 -77 21.5t-57 6.5zM301 1823q0 68 38.5 114t108.5 46h1q41 0 71 -19.5t45.5 -51t15.5 -66.5q0 -70 -39.5 -114.5 t-114.5 -44.5h-1q-55 0 -90 39.5t-35 96.5zM801 1823q0 68 38.5 114t107.5 46h1q42 0 72 -19.5t45.5 -51t15.5 -66.5q0 -70 -39 -114.5t-114 -44.5h-1q-56 0 -91 39.5t-35 96.5z" />
<glyph unicode="&#x4ed;" horiz-adv-x="1081" d="M80 297h123l39 -156q94 -41 201 -41q136 0 222 98t96 320l-471 -9v152l48 -1q17 0 127 -3.5t294 -7.5q-9 131 -51.5 222.5t-110 137t-150.5 45.5q-66 0 -110 -15.5t-75 -43.5l-44 -140h-126l-2 263q45 21 154 37t208 16q163 0 289.5 -69.5t198 -204.5t71.5 -327 q0 -180 -70.5 -314.5t-192.5 -206.5t-274 -72q-128 0 -228.5 32t-163.5 84zM117 1492q0 67 38 113.5t109 46.5h1q61 0 96.5 -41t35.5 -97q0 -70 -39.5 -114.5t-113.5 -44.5h-1q-57 0 -91.5 39t-34.5 98zM585 1492q0 67 38.5 113.5t108.5 46.5h1q62 0 97.5 -41t35.5 -97 q0 -70 -39.5 -114.5t-115.5 -44.5h-1q-55 0 -90 40t-35 97z" />
<glyph unicode="&#x4ee;" horiz-adv-x="1286" d="M-13 1411v111h563v-111l-191 -26l311 -707l55 -175l61 177l254 706l-164 25v111h445v-111l-112 -26l-427 -1061l-17 -41q-38 -93 -73 -154t-97 -106.5t-155 -45.5q-54 0 -107 10.5t-86 26.5v158q23 -1 72 -1.5t74 -0.5q66 0 102.5 12.5t61 44t47.5 95.5l-500 1064z M421 1746v158h570v-158h-570z" />
<glyph unicode="&#x4ef;" horiz-adv-x="1180" d="M-3 1031v106h509v-106l-157 -26l193 -604l89 -290l80 291l181 604l-134 25v106h420v-106l-102 -25q-144 -448 -234.5 -715.5t-115.5 -324.5q-68 -172 -128.5 -272t-140 -152t-194.5 -52q-31 0 -67 4.5t-50 10.5v189q12 -7 49 -12.5t70 -5.5q60 0 110.5 24.5t102.5 95.5 t101 204h-113l-374 1005zM343 1428v158h558v-158h-558z" />
<glyph unicode="&#x4f0;" horiz-adv-x="1286" d="M-13 1411v111h563v-111l-191 -26l311 -707l55 -175l61 177l254 706l-164 25v111h445v-111l-112 -26l-427 -1061l-17 -41q-38 -93 -73 -154t-97 -106.5t-155 -45.5q-54 0 -107 10.5t-86 26.5v158q23 -1 72 -1.5t74 -0.5q66 0 102.5 12.5t61 44t47.5 95.5l-500 1064z M314 1775q0 68 38.5 114t108.5 46h1q41 0 71 -19.5t45.5 -51t15.5 -66.5q0 -70 -39.5 -114.5t-114.5 -44.5h-1q-55 0 -90 39.5t-35 96.5zM814 1775q0 68 38.5 114t107.5 46h1q42 0 72 -19.5t45.5 -51t15.5 -66.5q0 -70 -39 -114.5t-114 -44.5h-1q-56 0 -91 39.5t-35 96.5z " />
<glyph unicode="&#x4f1;" horiz-adv-x="1180" d="M-3 1031v106h509v-106l-157 -26l193 -604l89 -290l80 291l181 604l-134 25v106h420v-106l-102 -25q-144 -448 -234.5 -715.5t-115.5 -324.5q-68 -172 -128.5 -272t-140 -152t-194.5 -52q-31 0 -67 4.5t-50 10.5v189q12 -7 49 -12.5t70 -5.5q60 0 110.5 24.5t102.5 95.5 t101 204h-113l-374 1005zM251 1492q0 67 38 113.5t109 46.5h1q61 0 96.5 -41t35.5 -97q0 -70 -39.5 -114.5t-113.5 -44.5h-1q-57 0 -91.5 39t-34.5 98zM719 1492q0 67 38.5 113.5t108.5 46.5h1q62 0 97.5 -41t35.5 -97q0 -70 -39.5 -114.5t-115.5 -44.5h-1q-55 0 -90 40 t-35 97z" />
<glyph unicode="&#x4f2;" horiz-adv-x="1286" d="M-13 1411v111h563v-111l-191 -26l311 -707l55 -175l61 177l254 706l-164 25v111h445v-111l-112 -26l-427 -1061l-17 -41q-38 -93 -73 -154t-97 -106.5t-155 -45.5q-54 0 -107 10.5t-86 26.5v158q23 -1 72 -1.5t74 -0.5q66 0 102.5 12.5t61 44t47.5 95.5l-500 1064z M273 1719l278 295l145 -120q-64 -73 -155.5 -142.5t-172.5 -114.5zM779 1719l294 293l134 -120q-57 -67 -153.5 -139t-179.5 -116z" />
<glyph unicode="&#x4f3;" horiz-adv-x="1180" d="M-3 1031v106h509v-106l-157 -26l193 -604l89 -290l80 291l181 604l-134 25v106h420v-106l-102 -25q-144 -448 -234.5 -715.5t-115.5 -324.5q-68 -172 -128.5 -272t-140 -152t-194.5 -52q-31 0 -67 4.5t-50 10.5v189q12 -7 49 -12.5t70 -5.5q60 0 110.5 24.5t102.5 95.5 t101 204h-113l-374 1005zM273 1408l317 405l145 -124q-31 -49 -103.5 -118t-153 -132.5t-129.5 -93.5zM758 1409l327 401l138 -121q-26 -45 -99.5 -115t-157 -135.5t-132.5 -93.5z" />
<glyph unicode="&#x4f4;" horiz-adv-x="1426" d="M19 1409v113h521v-113l-164 -27v-262q0 -181 21 -260t74 -103t172 -24q80 0 159.5 20.5t125.5 55.5v577l-174 25v111h585v-111l-179 -26v-1252l180 -27v-106h-614v109l202 25v547q-61 -44 -157.5 -71t-189.5 -27q-145 0 -240 43t-145.5 145.5t-50.5 277.5v333zM259 1775 q0 68 38.5 114t108.5 46h1q41 0 71 -19.5t45.5 -51t15.5 -66.5q0 -70 -39.5 -114.5t-114.5 -44.5h-1q-55 0 -90 39.5t-35 96.5zM759 1775q0 68 38.5 114t107.5 46h1q42 0 72 -19.5t45.5 -51t15.5 -66.5q0 -70 -39 -114.5t-114 -44.5h-1q-56 0 -91 39.5t-35 96.5z" />
<glyph unicode="&#x4f5;" horiz-adv-x="1344" d="M21 1030v107h488v-107l-136 -28v-112q0 -157 19 -233t70 -104.5t158 -28.5q89 0 148.5 18t104.5 44v415l-149 29v107h509v-107l-136 -29v-869l144 -23v-109h-547v109l179 24v334q-84 -40 -150 -61.5t-152 -21.5q-140 0 -233.5 38.5t-144 131.5t-50.5 252v195zM254 1492 q0 67 38 113.5t109 46.5h1q61 0 96.5 -41t35.5 -97q0 -70 -39.5 -114.5t-113.5 -44.5h-1q-57 0 -91.5 39t-34.5 98zM722 1492q0 67 38.5 113.5t108.5 46.5h1q62 0 97.5 -41t35.5 -97q0 -70 -39.5 -114.5t-115.5 -44.5h-1q-55 0 -90 40t-35 97z" />
<glyph unicode="&#x4f6;" horiz-adv-x="1163" d="M50 0v108l225 27v1249l-218 30v108h1070l15 -542h-149l-62 410l-418 14v-1270h383q0 -26 -27.5 -263t-30.5 -248h-142q-1 56 -12.5 204.5t-19.5 172.5h-614z" />
<glyph unicode="&#x4f7;" horiz-adv-x="1036" d="M102 0v109l152 17v875l-148 29v107h889l10 -426h-138l-58 294l-329 19v-897h309q0 -26 -27 -259.5t-30 -244.5h-143q-1 59 -12 206.5t-20 170.5h-455z" />
<glyph unicode="&#x4f8;" horiz-adv-x="2157" d="M26 1823q0 68 38.5 114t108.5 46h1q41 0 71 -19.5t45.5 -51t15.5 -66.5q0 -70 -39.5 -114.5t-114.5 -44.5h-1q-55 0 -90 39.5t-35 96.5zM112 0v109l183 24v1252l-183 26v111h602v-111l-183 -25v-1253l186 -27v-106h-605zM526 1823q0 68 38.5 114t107.5 46h1 q42 0 72 -19.5t45.5 -51t15.5 -66.5q0 -70 -39 -114.5t-114 -44.5h-1q-56 0 -91 39.5t-35 96.5zM924 0v109l169 22v1259l-164 30v102h590v-102l-193 -30v-467h256q166 0 282.5 -53t176.5 -153t60 -240q0 -157 -69.5 -268t-192.5 -168t-283 -57q-35 0 -137 7q-162 9 -209 9 l1 1l-2 -1h-285zM1326 120q40 -10 80 -14.5t111 -4.5q164 0 250 93t86 267q0 167 -87.5 250t-247.5 83h-192v-674z" />
<glyph unicode="&#x4f9;" horiz-adv-x="1799" d="M75 0v100l172 26v876l-163 26v109h582v-112l-195 -23v-315h221q437 0 437 -344q0 -180 -118 -272.5t-336 -92.5q-48 0 -175 11q-23 2 -86.5 6.5t-93.5 4.5h-245zM471 112q41 -7 76.5 -11t97.5 -4q123 0 184 55.5t61 172.5q0 125 -65 181t-197 56h-157v-450zM538 1492 q0 67 38 113.5t109 46.5h1q61 0 96.5 -41t35.5 -97q0 -70 -39.5 -114.5t-113.5 -44.5h-1q-57 0 -91.5 39t-34.5 98zM1006 1492q0 67 38.5 113.5t108.5 46.5h1q62 0 97.5 -41t35.5 -97q0 -70 -39.5 -114.5t-115.5 -44.5h-1q-55 0 -90 40t-35 97zM1181 1028v109h509v-109 l-138 -25v-871l150 -23v-109h-512v109l139 24v868z" />
<glyph unicode="&#x2000;" horiz-adv-x="1007" />
<glyph unicode="&#x2001;" horiz-adv-x="2014" />
<glyph unicode="&#x2002;" horiz-adv-x="1007" />
<glyph unicode="&#x2003;" horiz-adv-x="2014" />
<glyph unicode="&#x2004;" horiz-adv-x="671" />
<glyph unicode="&#x2005;" horiz-adv-x="503" />
<glyph unicode="&#x2006;" horiz-adv-x="335" />
<glyph unicode="&#x2007;" horiz-adv-x="335" />
<glyph unicode="&#x2008;" horiz-adv-x="251" />
<glyph unicode="&#x2009;" horiz-adv-x="402" />
<glyph unicode="&#x200a;" horiz-adv-x="111" />
<glyph unicode="&#x2010;" horiz-adv-x="1310" d="M230 535v162h850v-162h-850z" />
<glyph unicode="&#x2011;" horiz-adv-x="1310" d="M230 535v162h850v-162h-850z" />
<glyph unicode="&#x2012;" horiz-adv-x="1310" d="M230 535v162h850v-162h-850z" />
<glyph unicode="&#x2013;" horiz-adv-x="1607" d="M230 533v164h1147v-164h-1147z" />
<glyph unicode="&#x2014;" horiz-adv-x="2467" d="M230 534v163h2007v-163h-2007z" />
<glyph unicode="&#x2018;" horiz-adv-x="779" d="M220 1220q0 124 43 232t103.5 181.5t112.5 101.5h2l62 -61v-24q-49 -39 -91.5 -122.5t-42.5 -206.5q0 -45 11 -79.5t26 -57.5t40 -54q30 -34 44.5 -61t14.5 -65q0 -58 -33 -91t-85 -33h-1q-56 0 -103.5 48t-75 126.5t-27.5 165.5z" />
<glyph unicode="&#x2019;" horiz-adv-x="779" d="M232 1600q0 58 33 91t85 33h1q56 0 103.5 -48t75 -126.5t27.5 -165.5q0 -124 -43 -232t-103.5 -181.5t-112.5 -101.5h-2l-62 61v24q49 39 91.5 122.5t42.5 206.5q0 45 -11 79.5t-26 57.5t-40 54q-30 34 -44.5 61t-14.5 65z" />
<glyph unicode="&#x201a;" horiz-adv-x="779" d="M232 216q0 58 33 91t85 33h1q56 0 103.5 -48t75 -126.5t27.5 -165.5q0 -124 -43 -232t-103.5 -181.5t-112.5 -101.5h-2l-62 61v24q49 39 91.5 122.5t42.5 206.5q0 45 -11 79.5t-26 57.5t-40 54q-30 34 -44.5 61t-14.5 65z" />
<glyph unicode="&#x201c;" horiz-adv-x="1314" d="M220 1220q0 124 43 232t103.5 181.5t112.5 101.5h2l62 -61v-24q-49 -39 -91.5 -122.5t-42.5 -206.5q0 -45 11 -79.5t26 -57.5t40 -54q30 -34 44.5 -61t14.5 -65q0 -58 -33 -91t-85 -33h-1q-56 0 -103.5 48t-75 126.5t-27.5 165.5zM756 1220q0 124 43 232t103.5 181.5 t112.5 101.5h2l62 -61v-24q-49 -39 -91.5 -122.5t-42.5 -206.5q0 -45 11 -79.5t26 -57.5t40 -54q30 -34 44.5 -61t14.5 -65q0 -58 -33 -91t-85 -33h-1q-56 0 -103.5 48t-75 126.5t-27.5 165.5z" />
<glyph unicode="&#x201d;" horiz-adv-x="1313" d="M232 1610q0 58 33 91t85 33h1q56 0 103.5 -48t75 -126.5t27.5 -165.5q0 -124 -43 -232t-103.5 -181.5t-112.5 -101.5h-2l-62 61v24q49 39 91.5 122.5t42.5 206.5q0 45 -11 79.5t-26 57.5t-40 54q-30 34 -44.5 61t-14.5 65zM768 1610q0 58 33 91t85 33h1q56 0 103.5 -48 t75 -126.5t27.5 -165.5q0 -124 -43 -232t-103.5 -181.5t-112.5 -101.5h-2l-62 61v24q49 39 91.5 122.5t42.5 206.5q0 45 -11 79.5t-26 57.5t-40 54q-30 34 -44.5 61t-14.5 65z" />
<glyph unicode="&#x201e;" horiz-adv-x="1313" d="M232 216q0 58 33 91t85 33h1q56 0 103.5 -48t75 -126.5t27.5 -165.5q0 -124 -43 -232t-103.5 -181.5t-112.5 -101.5h-2l-62 61v24q49 39 91.5 122.5t42.5 206.5q0 45 -11 79.5t-26 57.5t-40 54q-30 34 -44.5 61t-14.5 65zM768 216q0 58 33 91t85 33h1q56 0 103.5 -48 t75 -126.5t27.5 -165.5q0 -124 -43 -232t-103.5 -181.5t-112.5 -101.5h-2l-62 61v24q49 39 91.5 122.5t42.5 206.5q0 45 -11 79.5t-26 57.5t-40 54q-30 34 -44.5 61t-14.5 65z" />
<glyph unicode="&#x2022;" horiz-adv-x="848" d="M217 691q0 60 30.5 109t80.5 77t107 28q56 0 100.5 -27.5t70.5 -76t26 -110.5q0 -58 -30.5 -107.5t-80.5 -78.5t-106 -29q-55 0 -100.5 29.5t-71.5 79t-26 106.5z" />
<glyph unicode="&#x2026;" horiz-adv-x="1792" d="M145 116q0 44 23.5 80.5t61.5 57.5t80 21q69 0 105.5 -39t36.5 -97q0 -47 -22.5 -83.5t-61 -56t-83.5 -19.5q-37 0 -69 17t-51.5 48t-19.5 71zM743 116q0 45 23.5 81t61.5 57t80 21q68 0 104.5 -39t36.5 -97q0 -47 -22.5 -83.5t-61 -56t-83.5 -19.5q-37 0 -69 17t-51 48 t-19 71zM1340 116q0 45 23.5 81t61.5 57t80 21q69 0 105 -39t36 -97q0 -47 -22.5 -83.5t-61 -56t-83.5 -19.5q-36 0 -68 17t-51.5 48t-19.5 71z" />
<glyph unicode="&#x202f;" horiz-adv-x="402" />
<glyph unicode="&#x2039;" horiz-adv-x="1189" d="M235 533v156l659 438l66 -112l-463 -401l468 -392l-71 -114z" />
<glyph unicode="&#x203a;" horiz-adv-x="1189" d="M224 222l468 392l-463 401l66 112l659 -438v-156l-659 -425z" />
<glyph unicode="&#x205f;" horiz-adv-x="503" />
<glyph unicode="&#x20ac;" horiz-adv-x="1558" d="M77 536v122h204q-1 22 -1 69q0 94 12 178h-194v122h218q43 165 135.5 282.5t226.5 179t300 61.5q92 0 165.5 -14.5t153.5 -39.5q12 -3 39.5 -11t46.5 -11l-18 -322h-125l-45 206q-29 32 -100.5 51t-157.5 19q-156 0 -254 -101.5t-134 -299.5h535v-122h-550 q-5 -54 -5 -135q0 -76 2 -112h524v-122h-513q29 -218 125 -335.5t277 -117.5q76 0 135 23.5t113 71.5l72 158l117 -23l-23 -247q-20 -1 -43 -7.5t-63 -20.5q-84 -30 -163.5 -48t-191.5 -18q-170 0 -296 68.5t-203 195t-104 300.5h-217z" />
<glyph unicode="&#x2122;" horiz-adv-x="2269" d="M141 1312l20 246h714v-245l-73 -4l-25 146l-171 10v-595l132 -15v-83h-439v83l124 15v593l-164 -8l-42 -142zM964 772v83l110 15l43 589l-109 9v90h377l139 -422l49 -164l196 586h334v-90l-102 -9l52 -589l103 -15v-83h-372v83l92 15l-24 377l-8 220l-29 -92l-214 -611 h-117l-201 547l-62 163l-3 -169l-27 -436l94 -14v-83h-321z" />
<glyph unicode="&#x25fc;" horiz-adv-x="1135" d="M0 0v1135h1135v-1135h-1135z" />
</font>
</defs>
</svg>
